<?xml version="1.0" encoding="utf-8"?>
<svg width="660.3699px" height="481.20178px" viewBox="0 0 660.3699 481.20178" version="1.1" xmlns:xlink="http://www.w3.org/1999/xlink" xmlns="http://www.w3.org/2000/svg">
  <g id="SceneHome-2" transform="translate(-11.870117 0)">
    <g id="Clock" transform="translate(477.5656 58.861507)">
      <path d="M53 106C82.2711 106 106 82.2711 106 53C106 23.7289 82.2711 0 53 0C23.7289 0 0 23.7289 0 53C0 82.2711 23.7289 106 53 106Z" id="Clock-Frame" fill="#F2F2F2" fill-rule="evenodd" stroke="none" />
      <path d="M53 14C54.6569 14 56 12.6569 56 11C56 9.34315 54.6569 8 53 8C51.3431 8 50 9.34315 50 11C50 12.6569 51.3431 14 53 14Z" id="Time" fill="#000000" fill-opacity="0.101960786" fill-rule="evenodd" stroke="none" />
      <path d="M11 56C12.6569 56 14 54.6568 14 53C14 51.3431 12.6569 50 11 50C9.34315 50 8 51.3431 8 53C8 54.6568 9.34315 56 11 56Z" id="Time" fill="#000000" fill-opacity="0.101960786" fill-rule="evenodd" stroke="none" />
      <path d="M95 56C96.6569 56 98 54.6568 98 53C98 51.3431 96.6569 50 95 50C93.3431 50 92 51.3431 92 53C92 54.6568 93.3431 56 95 56Z" id="Time" fill="#000000" fill-opacity="0.101960786" fill-rule="evenodd" stroke="none" />
      <path d="M53 98C54.6569 98 56 96.6568 56 95C56 93.3431 54.6569 92 53 92C51.3431 92 50 93.3431 50 95C50 96.6568 51.3431 98 53 98Z" id="Time" fill="#000000" fill-opacity="0.101960786" fill-rule="evenodd" stroke="none" />
      <path d="M53 17L55 52L51 52L53 17Z" id="Hand" fill="#AFB9C5" fill-rule="evenodd" stroke="none" />
      <path d="M70.6986 70.6985L52.3138 55.1422L55.1422 52.3137L70.6986 70.6985Z" id="Hand" fill="#AFB9C5" fill-rule="evenodd" stroke="none" />
      <path d="M53 57C55.2091 57 57 55.2091 57 53C57 50.7909 55.2091 49 53 49C50.7909 49 49 50.7909 49 53C49 55.2091 50.7909 57 53 57Z" id="Time" fill="#C5CFD6" fill-rule="evenodd" stroke="none" />
    </g>
    <g id="Background-Shape-2" transform="translate(27.574335 197.78412)" opacity="0.34588915">
      <path d="M439.474 139.734C433.065 77.2786 89.2015 -43.2661 25.3644 15.8901C-38.4727 75.0462 22.8988 186.067 156.678 214.496C290.457 242.926 445.883 202.189 439.474 139.734Z" id="Background-Shape" fill="#F2F2F2" fill-rule="evenodd" stroke="none" />
      <path d="M244.133 180.314C249.835 127.256 555.755 24.8487 612.548 75.1041C669.341 125.36 654.966 231.066 535.948 255.218C416.931 279.37 238.432 233.372 244.133 180.314Z" id="Background-Shape" fill="#DDE3E9" fill-rule="evenodd" stroke="none" />
    </g>
    <g id="Hanging-Lamp" transform="translate(21.337166 0)">
      <g id="Light" transform="translate(0 112.89752)">
        <path d="M49.5 57C72.9721 57 92 46.9264 92 34.5C92 22.0736 72.9721 12 49.5 12C26.0279 12 7 22.0736 7 34.5C7 46.9264 26.0279 57 49.5 57Z" id="Hanging-Lamp-Light" fill="#F2F2F2" fill-rule="evenodd" stroke="none" />
        <path d="M99 50C99 22.3858 76.8381 0 49.5 0C22.1619 0 0 22.3858 0 50" id="Hanging-Lamp" fill="#DDE3E9" fill-rule="evenodd" stroke="none" />
      </g>
      <path d="M47 0L52 0L52 120.224L47 120.224L47 0Z" id="Wire" fill="#DDE3E9" fill-rule="evenodd" stroke="none" />
    </g>
    <g id="Hanging-Lamp" transform="translate(107.526886 0)" opacity="0.7">
      <g id="Light" transform="translate(0 82.88397)">
        <path d="M37.0001 46C54.5449 46 68.7678 37.8704 68.7678 27.8421C68.7678 17.8138 54.5449 9.6842 37.0001 9.6842C19.4553 9.6842 5.23242 17.8138 5.23242 27.8421C5.23242 37.8704 19.4553 46 37.0001 46Z" id="Hanging-Lamp-Light" fill="#F2F2F2" fill-rule="evenodd" stroke="none" />
        <path d="M74 40.3509C74 18.0657 57.4345 0 37 0C16.5655 0 0 18.0657 0 40.3509" id="Hanging-Lamp" fill="#DDE3E9" fill-rule="evenodd" stroke="none" />
      </g>
      <path d="M35 0L40 0L40 105.884L35 105.884L35 0Z" id="Wire" fill="#DDE3E9" fill-rule="evenodd" stroke="none" />
    </g>
    <g id="Lamp" transform="translate(498.2373 147.23828)">
      <path d="M60 31.4355L76.4458 16.755Q76.5817 16.6337 76.7231 16.5187Q76.8644 16.4036 77.0107 16.2952Q77.1571 16.1867 77.3083 16.085Q77.4595 15.9833 77.6152 15.8886Q77.7708 15.794 77.9306 15.7064Q78.0904 15.6189 78.254 15.5388Q78.4177 15.4586 78.5848 15.386Q78.7519 15.3134 78.9221 15.2485Q79.0923 15.1836 79.2653 15.1265Q79.4383 15.0694 79.6138 15.0202Q79.7892 14.971 79.9667 14.9299Q80.1442 14.8887 80.3234 14.8557Q80.5026 14.8227 80.6831 14.7979Q80.8636 14.7731 81.045 14.7565Q81.2264 14.7399 81.4084 14.7316Q81.5904 14.7233 81.7726 14.7233Q81.9548 14.7233 82.1368 14.7316Q82.3188 14.7399 82.5003 14.7565Q82.6817 14.7731 82.8622 14.7979Q83.0427 14.8227 83.2219 14.8557Q83.4011 14.8887 83.5786 14.9299Q83.756 14.971 83.9315 15.0202Q84.1069 15.0694 84.2799 15.1265Q84.4529 15.1836 84.6232 15.2485Q84.7934 15.3134 84.9605 15.386Q85.1276 15.4586 85.2912 15.5388Q85.4549 15.6189 85.6147 15.7064Q85.7745 15.794 85.9301 15.8886Q86.0858 15.9833 86.2369 16.085Q86.3881 16.1867 86.5345 16.2952Q86.6809 16.4036 86.8222 16.5187Q86.9635 16.6337 87.0994 16.755L130.15 55.1841Q130.464 55.4645 130.763 55.761Q131.062 56.0576 131.345 56.3695Q131.628 56.6813 131.894 57.0077Q132.16 57.334 132.408 57.6739Q132.657 58.0137 132.887 58.3662Q133.118 58.7187 133.329 59.0828Q133.541 59.4469 133.733 59.8217Q133.925 60.1964 134.097 60.5807Q134.269 60.9651 134.421 61.3579Q134.573 61.7507 134.703 62.151Q134.834 62.5513 134.944 62.9579Q135.053 63.3645 135.141 63.7763Q135.229 64.1881 135.295 64.604Q135.362 65.0198 135.406 65.4386Q135.45 65.8574 135.472 66.2779Q135.494 66.6984 135.494 67.1195L135.494 327.963" id="Body" fill="none" fill-rule="evenodd" stroke="#CBCBCB" stroke-width="8" />
      <path d="M108.493 326.964L161.495 326.964Q161.643 326.964 161.789 326.978Q161.936 326.992 162.081 327.021Q162.225 327.05 162.366 327.093Q162.507 327.135 162.643 327.192Q162.779 327.248 162.909 327.318Q163.039 327.387 163.162 327.469Q163.284 327.551 163.398 327.644Q163.512 327.738 163.616 327.842Q163.72 327.946 163.814 328.06Q163.907 328.174 163.989 328.296Q164.071 328.419 164.14 328.549Q164.21 328.679 164.266 328.815Q164.323 328.951 164.365 329.092Q164.408 329.233 164.437 329.377Q164.466 329.522 164.48 329.669Q164.494 329.815 164.494 329.962L164.494 330.965Q164.494 331.112 164.48 331.258Q164.466 331.405 164.437 331.55Q164.408 331.694 164.365 331.835Q164.323 331.976 164.266 332.112Q164.21 332.248 164.14 332.378Q164.071 332.508 163.989 332.631Q163.907 332.753 163.814 332.867Q163.72 332.981 163.616 333.085Q163.512 333.189 163.398 333.283Q163.284 333.376 163.162 333.458Q163.039 333.54 162.909 333.609Q162.779 333.679 162.643 333.735Q162.507 333.792 162.366 333.834Q162.225 333.877 162.081 333.906Q161.936 333.935 161.789 333.949Q161.643 333.964 161.495 333.964L108.493 333.964Q108.346 333.964 108.199 333.949Q108.053 333.935 107.908 333.906Q107.764 333.877 107.623 333.834Q107.482 333.792 107.346 333.735Q107.21 333.679 107.08 333.609Q106.95 333.54 106.827 333.458Q106.705 333.376 106.591 333.283Q106.477 333.189 106.373 333.085Q106.269 332.981 106.175 332.867Q106.082 332.753 106 332.631Q105.918 332.508 105.849 332.378Q105.779 332.248 105.723 332.112Q105.666 331.976 105.624 331.835Q105.581 331.694 105.552 331.55Q105.523 331.405 105.509 331.258Q105.494 331.112 105.494 330.965L105.494 329.962Q105.494 329.815 105.509 329.669Q105.523 329.522 105.552 329.377Q105.581 329.233 105.624 329.092Q105.666 328.951 105.723 328.815Q105.779 328.679 105.849 328.549Q105.918 328.419 106 328.296Q106.082 328.174 106.175 328.06Q106.269 327.946 106.373 327.842Q106.477 327.738 106.591 327.644Q106.705 327.551 106.827 327.469Q106.95 327.387 107.08 327.318Q107.21 327.248 107.346 327.192Q107.482 327.135 107.623 327.093Q107.764 327.05 107.908 327.021Q108.053 326.992 108.199 326.978Q108.346 326.964 108.493 326.964Z" id="Lamp-Base" fill="#AFB9C5" fill-rule="evenodd" stroke="none" />
      <g id="Lamp-Top" transform="matrix(0.70710677 0.70710677 -0.70710677 0.70710677 48.790283 1)">
        <path d="M30.5293 1.38428L35.5313 1.38428Q36.28 1.38428 37.0278 1.42101Q37.7756 1.45775 38.5207 1.53114Q39.2658 1.60452 40.0064 1.71438Q40.747 1.82424 41.4813 1.97031Q42.2156 2.11637 42.9419 2.29829Q43.6682 2.48022 44.3847 2.69755Q45.1011 2.91489 45.8061 3.16712Q46.511 3.41936 47.2027 3.70587Q47.8944 3.99239 48.5713 4.31251Q49.2481 4.63262 49.9084 4.98556Q50.5687 5.3385 51.2109 5.72341Q51.8531 6.10832 52.4756 6.52428Q53.0981 6.94024 53.6995 7.38625Q54.3009 7.83225 54.8796 8.30723Q55.4584 8.78221 56.0131 9.28501Q56.5679 9.78781 57.0973 10.3172Q57.6267 10.8466 58.1295 11.4014Q58.6323 11.9562 59.1073 12.5349Q59.5823 13.1137 60.0283 13.715Q60.4743 14.3164 60.8903 14.9389Q61.3062 15.5615 61.6911 16.2037Q62.076 16.8458 62.429 17.5061Q62.7819 18.1664 63.102 18.8433Q63.4221 19.5201 63.7087 20.2118Q63.9952 20.9035 64.2474 21.6085Q64.4996 22.3134 64.717 23.0299Q64.9343 23.7463 65.1162 24.4726Q65.2982 25.1989 65.4442 25.9332Q65.5903 26.6675 65.7001 27.4081Q65.81 28.1487 65.8834 28.8938Q65.9568 29.639 65.9935 30.3868Q66.0303 31.1346 66.0303 31.8833L66.0303 62.3843L0.0302734 62.3843L0.0302734 31.8833Q0.0302734 31.1346 0.0670108 30.3868Q0.103748 29.639 0.177134 28.8939Q0.250521 28.1487 0.360379 27.4081Q0.470237 26.6675 0.616303 25.9332Q0.762369 25.1989 0.94429 24.4726Q1.12621 23.7463 1.34355 23.0299Q1.56089 22.3134 1.81312 21.6085Q2.06535 20.9035 2.35187 20.2118Q2.63839 19.5201 2.9585 18.8433Q3.27862 18.1664 3.63156 17.5061Q3.98449 16.8458 4.36941 16.2037Q4.75432 15.5615 5.17028 14.9389Q5.58624 14.3164 6.03225 13.715Q6.47825 13.1137 6.95323 12.5349Q7.4282 11.9562 7.931 11.4014Q8.43381 10.8466 8.96322 10.3172Q9.49264 9.78781 10.0474 9.28501Q10.6022 8.78221 11.1809 8.30723Q11.7597 7.83225 12.361 7.38625Q12.9624 6.94024 13.5849 6.52428Q14.2075 6.10832 14.8496 5.72341Q15.4918 5.3385 16.1521 4.98556Q16.8124 4.63262 17.4893 4.31251Q18.1661 3.99239 18.8578 3.70587Q19.5495 3.41936 20.2545 3.16712Q20.9594 2.91489 21.6759 2.69755Q22.3923 2.48022 23.1186 2.29829Q23.8449 2.11637 24.5792 1.97031Q25.3135 1.82424 26.0541 1.71438Q26.7947 1.60452 27.5398 1.53114Q28.2849 1.45775 29.0328 1.42101Q29.7806 1.38428 30.5293 1.38428L30.5293 1.38428Z" id="Lamp" fill="#C5CFD6" fill-rule="evenodd" stroke="none" />
        <path d="M33.209 67.9456C51.4344 67.9456 66.209 65.0354 66.209 61.4456C66.209 57.8557 51.4344 54.9456 33.209 54.9456C14.9836 54.9456 0.208984 57.8557 0.208984 61.4456C0.208984 65.0354 14.9836 67.9456 33.209 67.9456Z" id="Lamp" fill="#F2F2F2" fill-rule="evenodd" stroke="none" />
      </g>
    </g>
    <g id="Big-Leaf-Plant" transform="translate(11.870216 242.20178)">
      <g id="Big-Ass-Leaf" transform="translate(22 0)">
        <path d="M25.258 1.17309C28.1225 0.823121 31.1799 0.94666 33.8439 2.07737C39.5085 4.48201 41.1187 11.1741 41.0411 16.6135C40.9573 22.468 39.7141 28.8627 44.1651 33.5798C46.2112 35.7485 48.7563 37.4081 50.7654 39.6166C52.9122 41.9767 54.5966 44.677 55.8438 47.5768C58.1339 52.9032 59.2578 59.1669 57.1637 64.7543C55.3199 69.6736 50.6811 74.1138 51.6834 79.7076C52.729 85.5429 58.6122 90.0041 62.2904 94.3505C66.4532 99.2693 70.2859 105.556 70.9155 112.006C71.5193 118.188 68.8284 124.44 64.6988 129.113C56.4477 138.451 44.0452 143.028 31.5396 143C26.23 142.988 20.2186 142.748 15.6366 139.895C14.2204 139.013 13.4733 138.023 12.6315 136.648C11.8767 135.414 10.8796 134.612 9.72546 133.739C7.18987 131.822 5.35872 129.239 4.19012 126.347C-0.34778 115.114 3.27917 101.218 9.6312 91.2428C11.1364 88.8796 12.3686 86.6055 11.6374 83.7886C10.8744 80.8482 8.99901 78.1961 7.34026 75.6685C5.70115 73.1705 3.82988 70.7874 2.54876 68.0865C1.20699 65.2571 0.829163 62.2943 1.06624 59.1977C1.5118 53.3811 4.02273 48.0135 7.57766 43.3356C11.0017 38.8298 15.0221 34.5185 15.0311 28.6145C15.041 22.3571 10.8577 16.7908 12.6399 10.429C13.3778 7.79466 14.86 5.09184 17.2486 3.51252C19.5393 1.99785 22.5639 1.50224 25.258 1.17309Z" id="leaf" fill="#DDE3E9" fill-rule="evenodd" stroke="none" />
        <path d="M23.3862 11.1764C23.4399 10.336 24.4367 9.83201 25.2215 10.0513C26.2545 10.3401 26.2346 11.3053 26.2073 12.1652C26.1237 14.8083 26.5063 17.377 27.1417 19.9415C28.4622 25.2735 30.9027 30.1861 32.8362 35.308C34.768 40.4255 35.6748 45.7092 34.5416 51.1243C33.4732 56.23 31.7948 61.2033 30.7015 66.3154C29.7378 70.8211 28.7123 75.5726 30.1799 80.0668C31.5921 84.3928 34.7142 87.9159 36.9625 91.8253C41.6165 99.9181 43.6813 108.896 43.9574 118.135C44.0854 122.425 43.9702 126.755 42.9749 130.963C42.402 133.386 41.6322 136.66 39.5559 138.333C38.5985 139.105 36.961 139.371 36.1552 138.229C35.3987 137.158 36.0624 135.499 36.3025 134.357C37.3427 129.413 37.5519 124.361 37.3029 119.342C37.0619 114.48 36.4874 109.626 34.9572 104.982C33.5369 100.673 31.3792 96.8022 28.8398 93.0325C26.2521 89.1909 23.562 85.3411 22.4928 80.7892C21.4065 76.1661 22.289 71.462 23.4691 66.9272C24.7171 62.1306 26.3518 57.4717 28.0417 52.8051C29.6886 48.2579 30.2724 43.9554 29.3632 39.1962C27.5672 29.7935 22.7598 20.9681 23.3862 11.1764Z" id="middle-thing" fill="#C5CFD6" fill-rule="evenodd" stroke="none" />
      </g>
      <g id="Big-Ass-Leaf" transform="translate(32 11)">
        <path d="M90.8923 1.58227C94.4372 2.6586 97.9579 4.39522 100.485 7.11828C105.858 12.909 104.209 21.6609 101.243 28.0532C98.0504 34.9334 93.2123 41.8491 95.9396 49.7432C97.1932 53.3723 99.3012 56.6591 100.49 60.3161C101.761 64.224 102.309 68.2938 102.239 72.372C102.11 79.8624 100.118 87.8548 94.7081 93.3731C89.9453 98.2317 82.1575 101.07 80.3765 108.206C78.5185 115.651 83.0609 123.988 85.0778 131.041C87.3604 139.024 88.5329 148.453 85.8619 156.409C83.3026 164.034 76.8418 170.028 69.5282 173.406C54.9152 180.156 37.9487 179.117 23.2958 172.578C17.0748 169.801 10.1506 166.391 6.28453 160.633C5.0897 158.853 4.7364 157.294 4.47601 155.23C4.24261 153.378 3.49716 151.911 2.60479 150.278C0.643996 146.692 -0.138197 142.684 0.0197663 138.656C0.634486 123.011 12.2336 108.464 24.9562 99.9717C27.9708 97.9599 30.6181 95.9115 31.2494 92.1999C31.9086 88.3255 31.1108 84.2134 30.5012 80.3613C29.899 76.5544 28.9638 72.7626 28.8888 68.902C28.8105 64.8579 29.9334 61.1574 31.8482 57.6187C35.4453 50.9716 41.2275 45.9299 47.8696 42.2471C54.2672 38.6997 61.2616 35.6925 64.3928 28.715C67.7118 21.32 65.7474 12.5609 71.2003 5.96432C73.4582 3.23279 76.6252 0.807409 80.2616 0.182273C83.7489 -0.417346 87.5584 0.569997 90.8923 1.58227Z" id="leaf" fill="#DDE3E9" fill-rule="evenodd" stroke="none" />
        <path d="M83.6513 13.8109C84.1542 12.8438 85.5838 12.7694 86.3866 13.4404C87.4432 14.3238 86.9145 15.4564 86.4323 16.4604C84.9502 19.5467 84.0523 22.7891 83.4521 26.1592C82.2037 33.1657 82.4845 40.2625 82.063 47.3413C81.6416 54.4142 79.9348 61.1467 75.7736 66.9654C71.8504 72.4518 67.2832 77.4617 63.3274 82.9426C59.8408 87.7733 56.1533 92.8627 55.5156 98.9541C54.9012 104.817 56.7069 110.626 57.2882 116.434C58.4919 128.457 56.2042 140.171 51.6884 151.257C49.5911 156.405 47.1887 161.472 43.8211 165.933C41.8824 168.503 39.2673 171.977 35.9634 172.869C34.4399 173.281 32.3855 172.739 32.0415 170.964C31.7181 169.298 33.3628 167.682 34.2417 166.455C38.047 161.146 40.9376 155.273 43.2753 149.198C45.5399 143.314 47.4103 137.265 48.0529 130.963C48.6491 125.116 48.1532 119.401 47.1581 113.606C46.1443 107.701 45.0149 101.731 46.1486 95.7806C47.2996 89.7364 50.7953 84.6281 54.5501 79.8764C58.5215 74.8502 62.8729 70.1897 67.293 65.5491C71.6003 61.0273 74.5362 56.2381 75.9656 50.1256C78.7899 38.0493 77.7907 25.0782 83.6513 13.8109Z" id="middle-thing" fill="#C5CFD6" fill-rule="evenodd" stroke="none" />
      </g>
      <g id="Big-Ass-Leaf" transform="translate(0 57)">
        <path d="M13.306 0C19.2003 0 24.3823 3.12436 27.9531 7.55793C32.133 12.7481 32.9772 19.0862 34.6745 25.2719C35.5191 28.3503 36.9717 31.4062 39.5174 33.4977C41.8327 35.3998 44.7721 35.7804 47.5435 36.7097C53.0822 38.5669 57.5547 43.0406 59.321 48.4995C61.4758 55.1582 59.1934 61.8734 59.5864 68.6215C59.9472 74.8188 66.0576 78.6852 70.9738 81.656C75.8215 84.5855 80.1886 87.3278 81.6487 93.0348C83.1969 99.0876 83.7164 105.844 81.5719 111.823C78.0015 121.779 67.5525 126.163 57.4561 126.842C48.2932 127.459 36.7719 126.491 29.8907 119.84C25.773 115.86 24.2819 110.293 24.4669 104.755C24.5818 101.311 25.264 97.8993 26.146 94.5714C26.7711 92.2127 27.6157 89.864 27.8563 87.4267C28.4959 80.9422 22.5026 79.6967 17.401 77.9164C10.9183 75.6536 6.37987 71.3797 3.22399 65.4254C0.285002 59.8815 -0.948134 53.6581 0.813701 47.5542C1.71353 44.4375 3.3456 41.6097 5.55902 39.2046C6.53336 38.146 7.90665 37.2631 8.78608 36.1509C9.60694 35.1122 9.42823 33.7664 9.14535 32.5499C7.83732 26.9306 3.76196 22.2776 2.30451 16.6684C0.988698 11.6054 1.76655 5.30421 6.39544 2.03788C8.3953 0.626538 10.8616 0.0155729 13.306 0Z" id="leaf" fill="#C5CFD6" fill-rule="evenodd" stroke="none" />
        <path d="M21.3377 14.6414C27.585 21.296 29.2831 30.325 29.7815 39.0761C30.0606 43.9834 29.7701 49.1593 31.2118 53.9192C32.4454 57.9931 35.3373 61.1073 38.3183 64.0505C44.3188 69.9754 51.0108 75.9988 52.7659 84.5737C53.7957 89.6058 53.1006 94.8035 54.5236 99.7803C55.8175 104.304 58.0956 108.748 60.8665 112.568C63.0975 115.645 66.0042 118 68.443 120.867C69.1871 121.743 70.2529 123.031 69.9458 124.267C69.5865 125.714 67.7431 126.172 66.4352 125.945C63.3859 125.415 60.8191 122.503 58.8253 120.386C55.9098 117.291 53.4323 113.962 51.4187 110.227C49.1832 106.08 47.3833 101.679 46.6142 97.0257C45.8161 92.1985 46.2133 87.1678 44.3909 82.5351C41.3242 74.74 33.886 70.1399 28.5082 64.0643C21.8077 56.4938 22.807 47.0715 23.4933 37.759C23.8703 32.6413 24.2451 26.862 21.6591 22.1895C20.672 20.4058 18.4711 18.7428 18.0467 16.7155C17.6579 14.8579 19.7797 12.9809 21.3377 14.6414Z" id="middle-thing" fill="#AFB9C5" fill-rule="evenodd" stroke="none" />
      </g>
      <path d="M28.0004 181C28.0004 219.058 34.2112 239 67.0001 239C99.789 239 106 219.058 106 181L28.0004 181Z" id="Base" fill="#89C5CC" fill-rule="evenodd" stroke="none" />
    </g>
    <g id="Table" transform="translate(125.28972 224.20178)">
      <g id="Lamp" transform="translate(23 0)">
        <path d="M22.999 144L57.001 144Q57.0992 144 57.1969 144.01Q57.2947 144.019 57.391 144.038Q57.4873 144.058 57.5813 144.086Q57.6753 144.115 57.766 144.152Q57.8567 144.19 57.9433 144.236Q58.0299 144.282 58.1116 144.337Q58.1932 144.391 58.2691 144.454Q58.3451 144.516 58.4145 144.585Q58.484 144.655 58.5462 144.731Q58.6086 144.807 58.6631 144.888Q58.7177 144.97 58.764 145.057Q58.8103 145.143 58.8478 145.234Q58.8854 145.325 58.9139 145.419Q58.9424 145.513 58.9616 145.609Q58.9808 145.705 58.9904 145.803Q59 145.901 59 145.999L59 151.001Q59 151.099 58.9904 151.197Q58.9808 151.295 58.9616 151.391Q58.9424 151.487 58.9139 151.581Q58.8854 151.675 58.8478 151.766Q58.8103 151.857 58.764 151.943Q58.7177 152.03 58.6631 152.112Q58.6086 152.193 58.5462 152.269Q58.484 152.345 58.4145 152.414Q58.3451 152.484 58.2691 152.546Q58.1932 152.609 58.1116 152.663Q58.0299 152.718 57.9433 152.764Q57.8567 152.81 57.766 152.848Q57.6753 152.885 57.5813 152.914Q57.4873 152.942 57.391 152.962Q57.2947 152.981 57.1969 152.99Q57.0992 153 57.001 153L22.999 153Q22.9008 153 22.8031 152.99Q22.7053 152.981 22.609 152.962Q22.5127 152.942 22.4187 152.914Q22.3247 152.885 22.234 152.848Q22.1433 152.81 22.0567 152.764Q21.9701 152.718 21.8884 152.663Q21.8068 152.609 21.7308 152.546Q21.6549 152.484 21.5855 152.414Q21.5161 152.345 21.4538 152.269Q21.3915 152.193 21.3369 152.112Q21.2823 152.03 21.236 151.943Q21.1897 151.857 21.1522 151.766Q21.1146 151.675 21.0861 151.581Q21.0576 151.487 21.0384 151.391Q21.0193 151.295 21.0096 151.197Q21 151.099 21 151.001L21 145.999Q21 145.901 21.0096 145.803Q21.0193 145.705 21.0384 145.609Q21.0576 145.513 21.0861 145.419Q21.1146 145.325 21.1522 145.234Q21.1897 145.143 21.236 145.057Q21.2823 144.97 21.3369 144.888Q21.3915 144.807 21.4538 144.731Q21.5161 144.655 21.5855 144.585Q21.6549 144.516 21.7308 144.454Q21.8068 144.391 21.8884 144.337Q21.9701 144.282 22.0567 144.236Q22.1433 144.19 22.234 144.152Q22.3247 144.115 22.4187 144.086Q22.5127 144.058 22.609 144.038Q22.7053 144.019 22.8031 144.01Q22.9008 144 22.999 144Z" id="Lamp-Base" fill="#AFB9C5" fill-rule="evenodd" stroke="none" />
        <path d="M38.2169 71L42.7831 71Q43.5603 94.1282 50 115L56.5 115C57.1554 115.016 57.3204 115.008 57.9736 115.07C59.1979 115.187 60.4078 115.45 61.57 115.852C63.6633 116.577 65.5934 117.753 67.1965 119.282C68.9784 120.981 70.3424 123.103 71.1476 125.43C71.5498 126.592 71.8129 127.802 71.9298 129.026C71.9921 129.679 71.9844 129.845 72 130.5C71.9844 131.155 71.9922 131.32 71.9298 131.974C71.813 133.198 71.5498 134.408 71.1476 135.57C70.3424 137.897 68.9785 140.019 67.1966 141.718C65.5935 143.247 63.6634 144.423 61.5701 145.148C60.4079 145.55 59.198 145.813 57.9738 145.93C57.3207 145.992 57.1553 145.984 56.5 146L23.5 146C22.8446 145.984 22.6796 145.992 22.0264 145.93C20.8021 145.813 19.5922 145.55 18.43 145.148C16.3367 144.423 14.4066 143.247 12.8035 141.718C11.0216 140.019 9.65765 137.897 8.85244 135.57C8.45023 134.408 8.18707 133.198 8.07019 131.974C8.00782 131.321 8.0156 131.155 8 130.5C8.01559 129.845 8.00782 129.68 8.07017 129.026C8.18705 127.802 8.45019 126.592 8.85239 125.43C9.57681 123.337 10.7532 121.407 12.2818 119.803C13.9808 118.022 16.1032 116.658 18.4299 115.852C19.5921 115.45 20.802 115.187 22.0262 115.07C22.6795 115.008 22.8445 115.016 23.5 115L31 115C37.4397 94.1282 38.2169 71 38.2169 71Z" id="Lamp-Body" fill="#DDE3E9" fill-rule="evenodd" stroke="none" />
        <path d="M4.62222 1.67861C4.62222 1.67861 21.8111 2.18959e-15 39 0C56.1889 0 73.3778 1.67861 73.3778 1.67861L78 81.1331C78 81.1331 58.5 83 39 83C19.5 83 0 81.1331 0 81.1331L4.62222 1.67861Z" id="Shade" fill="#C5CFD6" fill-rule="evenodd" stroke="none" />
      </g>
      <path d="M0 257L0 153L125 153L125 257L104 257L104 175L21 175L21 257L0 257Z" id="Table" fill="#F2F2F2" fill-rule="evenodd" stroke="none" />
    </g>
    <g id="Plant" transform="translate(507.8694 199.20178)">
      <g id="Succulents" transform="translate(13 0)">
        <path d="M3.38092 0.208187C12.2139 21.1972 27.2292 35.7805 35.1819 57.6049C39.8978 70.5474 41.8636 84.6195 41.9828 99.032C42.0476 106.86 41.9113 114.694 41.8746 122.522C41.839 130.156 41.6315 137.741 40.9835 145.327C40.3324 152.952 39.6033 160.487 39.2817 168.159C39.0314 174.137 38.9171 181.091 36.8906 186.544C35.2792 190.881 31.1835 191.516 30.0967 186.256C29.4928 183.333 29.5689 180.068 29.6355 177.063C29.721 173.208 29.9452 169.359 30.0595 165.504C30.5192 150.036 29.9233 134.566 30.2348 119.092C30.5391 103.973 32.4824 88.8711 30.3321 73.8534C28.5565 61.4519 24.0455 50.8025 18.8615 40.5932C13.8739 30.7708 8.44546 21.1872 5.07495 10.0144C4.10716 6.8056 3.35899 3.48051 3 0.0301404C3.15691 -0.0427295 3.28389 0.0164997 3.38092 0.208187Z" id="Thi-Succs!" fill="#C1DEE2" fill-rule="evenodd" stroke="none" />
        <path d="M0.973588 41.617C2.72266 42.88 3.70001 44.7276 4.88223 46.5505C6.35238 48.817 8.08078 50.8631 9.55056 53.1311C12.6153 57.8596 15.3079 62.8785 18.1016 67.7986C23.4056 77.1374 27.4326 87.0908 29.4272 97.8949C31.4946 109.092 32.0521 120.648 32.9193 132.012C33.8391 144.056 34.7654 156.188 34.8872 168.279C34.9417 173.696 35.2345 179.446 34.5842 184.825C34.1793 188.173 32.6682 191.027 29.2614 191C22.0249 190.942 18.6275 182.927 17.2081 176.354C15.1188 166.674 14.7019 156.393 15.0327 146.494C15.4323 134.558 17.5039 122.802 18.4004 110.912C19.35 98.3248 18.8136 85.9602 14.4862 74.1089C12.2999 68.1198 9.76257 62.2743 7.48423 56.325C6.51402 53.792 5.71936 51.19 4.40896 48.8313C2.95121 46.2076 1.14162 43.8259 -5.40345e-15 41C0.324404 41.2059 0.649184 41.4114 0.973588 41.617Z" id="Thi-Succs!" fill="#89C5CC" fill-rule="evenodd" stroke="none" />
        <path d="M84.3341 16.5177C84.556 16.3452 84.7782 16.1728 85 16C84.3609 18.6927 83.2066 20.8799 82.3242 23.3413C81.531 25.5541 81.1289 28.0582 80.5947 30.4769C79.3401 36.1578 77.8904 41.7105 76.7055 47.4397C74.3599 58.7768 74.8035 70.9902 76.3419 83.5682C77.7948 95.4496 80.0925 107.313 81.1873 119.192C82.0949 129.043 82.485 139.202 81.6193 148.601C81.031 154.984 79.1026 162.606 73.8481 161.962C71.3745 161.659 70.0841 158.681 69.5642 155.32C68.7291 149.922 68.5543 144.246 68.2288 138.878C67.5024 126.896 67.3577 114.951 67.2142 103.092C67.0784 91.904 66.7045 80.4938 67.4521 69.5873C68.1732 59.0631 70.4285 49.5797 73.6531 40.8297C75.3515 36.2198 76.9697 31.5021 78.8779 27.1084C79.793 25.001 80.911 23.1388 81.8265 21.033C82.5627 19.3392 83.1483 17.6011 84.3341 16.5177Z" id="Thi-Succs!" fill="#C1DEE2" fill-rule="evenodd" stroke="none" />
        <path d="M3.20881 76.3018C4.16572 74.6953 6.27207 79.9934 6.59263 80.6598C6.45705 80.3283 6.32093 79.9973 6.1836 79.6666C8.08299 82.8249 9.82063 86.1127 10.901 89.7342C11.9701 93.3191 12.8883 96.9765 13.8914 100.587C15.7736 107.361 18.2017 113.943 19.907 120.778C21.5686 127.438 21.9875 133.986 21.5853 140.875C21.1672 148.035 20.9115 155.306 21.3992 162.462C21.6321 165.88 22.7427 169.064 23.5039 172.354C24.266 175.648 24.8663 178.986 25.7673 182.239C25.9741 181.815 26.0004 183.232 26 183.339C25.9943 184.152 25.8809 184.833 25.6194 185.604C24.9475 187.586 23.6906 189.269 21.778 189.816C18.3215 190.803 15.1122 187.659 13.9976 184.339C12.3986 179.575 11.5174 174.311 10.7554 169.304C10.0568 164.713 9.89144 160.094 10.099 155.44C10.5079 146.261 12.169 137.202 12.6183 128.026C13.1074 118.036 11.128 108.649 9.47082 98.9248C8.67258 94.2392 7.90974 89.5978 6.3563 85.1337C5.72737 83.326 4.90737 81.7307 4.04759 80.0614C3.55838 79.1117 2.56905 77.4176 3.20881 76.3018Z" id="Thi-Succs!" fill="#C1DEE2" fill-rule="evenodd" stroke="none" />
        <path d="M31.2521 60.697C30.8556 72.1418 30.172 83.4998 28.6462 94.824C27.0889 106.38 25.3003 117.897 23.802 129.464C22.3434 140.722 20.8145 152.168 21.0184 163.585C21.1685 171.993 19.7741 186.219 29.1134 190.369C38.5721 194.572 40.601 176.623 41.2221 170.699C42.4123 159.333 42.027 147.847 41.4494 136.419C40.8564 124.689 39.8664 113.02 38.6395 101.334C37.2768 88.3528 36.2076 75.3135 35.3495 62.2959C34.9249 55.857 34.8203 49.4287 34.9374 42.9882C35.0482 36.9107 34.8173 30.7703 32.6565 25C32.5433 25.0821 32.4308 25.1642 32.3176 25.2459" id="Thi-Succs!" fill="#69A1AC" fill-rule="evenodd" stroke="none" />
        <path d="M80.0827 96.9552C78.3817 99.4333 76.6669 101.887 75.0605 104.512C72.1861 109.209 69.5869 114.432 68.805 121.147C67.1686 135.2 68.4814 150.379 68.7983 164.863C68.8631 167.822 68.4888 170.693 69.6553 173.51C70.713 176.064 72.6905 178.01 74.5755 178C78.6108 177.977 77.9951 168.095 78.0018 163.746C78.0139 156.123 77.1591 148.422 77.2327 140.806C77.3062 133.26 77.765 125.694 78.859 118.528C79.9666 111.275 81.5886 104.309 83.7291 97.8096C84.0262 96.9075 86.1579 89.9375 84.1439 91.1387" id="Thi-Succs!" fill="#89C5CC" fill-rule="evenodd" stroke="none" />
        <path d="M62.2622 22C59.6091 22 59.6254 35.226 59.5456 36.9248C59.2574 43.0554 59.3251 49.1876 59.1428 55.3194C58.7437 68.7008 58.2535 82.1995 56.2435 95.4263C55.1613 102.547 53.9067 109.636 52.5571 116.702C51.2037 123.789 49.387 130.867 48.4966 138.044C47.6417 144.943 48.1247 151.977 48.242 158.91C48.3592 165.885 48.5699 172.874 49.4838 179.788C49.7092 181.494 49.9736 183.195 50.2565 184.891C50.4922 186.305 50.3549 188.058 50.7536 189.401C51.3928 191.552 54.1329 192.256 55.978 191.92C60.9705 191.009 64.1595 184.74 65.865 180.16C68.043 174.311 69.1985 167.967 70.339 161.804C71.6311 154.821 72.3883 147.732 72.7435 140.623C73.4656 126.175 72.5389 111.712 71.504 97.3101C70.9283 89.3007 70.2633 81.3265 69.2458 73.3667C68.2325 65.441 66.9324 57.5505 66.0859 49.6013C65.4709 43.8246 64.8649 38.0401 64.4666 32.2413C64.3713 30.8586 64.2911 22 62.2622 22" id="Thi-Succs!" fill="#69A1AC" fill-rule="evenodd" stroke="none" />
        <path d="M58.9408 118.139C58.5084 104.253 52.9265 43.2589 51.6566 26.4671C51.339 22.2642 48.2815 4.76464 47.8849 0C46.8096 1.34674 46.9015 22.3094 46.9133 27.1262C46.9258 31.8908 46.3349 36.5765 46.0308 41.3155C45.721 46.151 38.5723 108.601 37.6446 113.247C35.799 122.491 34.5638 131.976 33.6111 141.428C32.683 150.639 31.2401 160.358 32.482 169.618C32.7675 171.75 33.2192 173.848 33.9547 175.806C34.7493 177.922 35.2939 179.879 35.9317 182.093C36.9581 185.659 38.8149 188.789 41.6679 190.262C47.5173 193.281 50.6583 186.447 52.2505 180.497C54.7934 170.995 56.4256 161.338 57.1908 151.359C58.0374 140.318 59.2871 129.255 58.9408 118.139" id="Thi-Succs!" fill="#89C5CC" fill-rule="evenodd" stroke="none" />
      </g>
      <g id="Planter" transform="translate(0 159)">
        <path d="M11.999 0L99.001 0Q99.0992 0 99.1969 0.00962573Q99.2947 0.0192515 99.391 0.0384102Q99.4873 0.057569 99.5813 0.0860763Q99.6753 0.114584 99.766 0.152165Q99.8567 0.189746 99.9433 0.236039Q100.03 0.282333 100.112 0.336892Q100.193 0.391452 100.269 0.453752Q100.345 0.516052 100.415 0.585494Q100.484 0.654935 100.546 0.730848Q100.609 0.806761 100.663 0.888415Q100.718 0.970069 100.764 1.05668Q100.81 1.14329 100.848 1.23402Q100.885 1.32474 100.914 1.41872Q100.942 1.5127 100.962 1.60901Q100.981 1.70533 100.99 1.80306Q101 1.9008 101 1.999L101 89.001Q101 89.0992 100.99 89.1969Q100.981 89.2947 100.962 89.391Q100.942 89.4873 100.914 89.5813Q100.885 89.6752 100.848 89.766Q100.81 89.8567 100.764 89.9433Q100.718 90.0299 100.663 90.1116Q100.609 90.1932 100.546 90.2691Q100.484 90.3451 100.415 90.4145Q100.345 90.4839 100.269 90.5462Q100.193 90.6085 100.112 90.6631Q100.03 90.7177 99.9433 90.764Q99.8567 90.8102 99.766 90.8478Q99.6753 90.8854 99.5813 90.9139Q99.4873 90.9424 99.391 90.9616Q99.2947 90.9807 99.1969 90.9904Q99.0992 91 99.001 91L11.999 91Q11.9008 91 11.8031 90.9904Q11.7053 90.9807 11.609 90.9616Q11.5127 90.9424 11.4187 90.9139Q11.3247 90.8854 11.234 90.8478Q11.1433 90.8102 11.0567 90.7639Q10.9701 90.7177 10.8884 90.6631Q10.8068 90.6085 10.7308 90.5462Q10.6549 90.4839 10.5855 90.4145Q10.5161 90.3451 10.4538 90.2691Q10.3915 90.1932 10.3369 90.1116Q10.2823 90.0299 10.236 89.9433Q10.1897 89.8567 10.1522 89.766Q10.1146 89.6753 10.0861 89.5813Q10.0576 89.4873 10.0384 89.391Q10.0193 89.2947 10.0096 89.1969Q10 89.0992 10 89.001L10 1.999Q10 1.9008 10.0096 1.80306Q10.0193 1.70533 10.0384 1.60901Q10.0576 1.5127 10.0861 1.41872Q10.1146 1.32474 10.1522 1.23402Q10.1897 1.14329 10.236 1.05668Q10.2823 0.970069 10.3369 0.888415Q10.3915 0.806761 10.4538 0.730848Q10.5161 0.654935 10.5855 0.585494Q10.6549 0.516052 10.7308 0.453752Q10.8068 0.391452 10.8884 0.336892Q10.9701 0.282333 11.0567 0.236039Q11.1433 0.189746 11.234 0.152165Q11.3247 0.114584 11.4187 0.0860763Q11.5127 0.057569 11.609 0.0384102Q11.7053 0.0192515 11.8031 0.00962573Q11.9008 0 11.999 0Z" id="Vase" fill="#FFFFFF" fill-rule="evenodd" stroke="none" />
        <path d="M1.999 10L8.001 10Q8.09921 10 8.19694 10.0096Q8.29467 10.0193 8.39098 10.0384Q8.4873 10.0576 8.58128 10.0861Q8.67525 10.1146 8.76598 10.1522Q8.85671 10.1897 8.94332 10.236Q9.02993 10.2823 9.11158 10.3369Q9.19324 10.3915 9.26915 10.4538Q9.34507 10.5161 9.41451 10.5855Q9.48395 10.6549 9.54625 10.7308Q9.60855 10.8068 9.66311 10.8884Q9.71767 10.9701 9.76396 11.0567Q9.81025 11.1433 9.84783 11.234Q9.88542 11.3247 9.91392 11.4187Q9.94243 11.5127 9.96159 11.609Q9.98075 11.7053 9.99037 11.8031Q10 11.9008 10 11.999L10 121.001Q10 121.099 9.99037 121.197Q9.98075 121.295 9.96159 121.391Q9.94243 121.487 9.91392 121.581Q9.88542 121.675 9.84783 121.766Q9.81025 121.857 9.76396 121.943Q9.71767 122.03 9.66311 122.112Q9.60855 122.193 9.54625 122.269Q9.48395 122.345 9.41451 122.415Q9.34507 122.484 9.26915 122.546Q9.19324 122.609 9.11158 122.663Q9.02993 122.718 8.94332 122.764Q8.85671 122.81 8.76598 122.848Q8.67525 122.885 8.58128 122.914Q8.4873 122.942 8.39098 122.962Q8.29467 122.981 8.19694 122.99Q8.09921 123 8.001 123L1.999 123Q1.9008 123 1.80306 122.99Q1.70533 122.981 1.60901 122.962Q1.5127 122.942 1.41872 122.914Q1.32474 122.885 1.23402 122.848Q1.14329 122.81 1.05668 122.764Q0.970069 122.718 0.888415 122.663Q0.806761 122.609 0.730848 122.546Q0.654935 122.484 0.585494 122.415Q0.516052 122.345 0.453752 122.269Q0.391452 122.193 0.336892 122.112Q0.282333 122.03 0.236039 121.943Q0.189746 121.857 0.152165 121.766Q0.114584 121.675 0.0860763 121.581Q0.057569 121.487 0.0384102 121.391Q0.0192515 121.295 0.00962573 121.197Q0 121.099 0 121.001L0 11.999Q0 11.9008 0.00962573 11.8031Q0.0192515 11.7053 0.0384102 11.609Q0.057569 11.5127 0.0860763 11.4187Q0.114584 11.3247 0.152165 11.234Q0.189746 11.1433 0.236039 11.0567Q0.282333 10.9701 0.336892 10.8884Q0.391452 10.8068 0.453752 10.7308Q0.516052 10.6549 0.585494 10.5855Q0.654935 10.5161 0.730848 10.4538Q0.806761 10.3915 0.888415 10.3369Q0.970069 10.2823 1.05668 10.236Q1.14329 10.1897 1.23402 10.1522Q1.32474 10.1146 1.41872 10.0861Q1.5127 10.0576 1.60901 10.0384Q1.70533 10.0193 1.80306 10.0096Q1.9008 10 1.999 10L1.999 10Z" id="Leg" fill="#C5CFD6" fill-rule="evenodd" stroke="none" />
        <path d="M51.999 10L58.001 10Q58.0992 10 58.1969 10.0096Q58.2947 10.0193 58.391 10.0384Q58.4873 10.0576 58.5813 10.0861Q58.6753 10.1146 58.766 10.1522Q58.8567 10.1897 58.9433 10.236Q59.0299 10.2823 59.1116 10.3369Q59.1932 10.3915 59.2692 10.4538Q59.3451 10.5161 59.4145 10.5855Q59.4839 10.6549 59.5462 10.7308Q59.6085 10.8068 59.6631 10.8884Q59.7177 10.9701 59.764 11.0567Q59.8102 11.1433 59.8478 11.234Q59.8854 11.3247 59.9139 11.4187Q59.9424 11.5127 59.9616 11.609Q59.9807 11.7053 59.9904 11.8031Q60 11.9008 60 11.999L60 121.001Q60 121.099 59.9904 121.197Q59.9807 121.295 59.9616 121.391Q59.9424 121.487 59.9139 121.581Q59.8854 121.675 59.8478 121.766Q59.8102 121.857 59.764 121.943Q59.7177 122.03 59.6631 122.112Q59.6085 122.193 59.5462 122.269Q59.4839 122.345 59.4145 122.415Q59.3451 122.484 59.2692 122.546Q59.1932 122.609 59.1116 122.663Q59.0299 122.718 58.9433 122.764Q58.8567 122.81 58.766 122.848Q58.6753 122.885 58.5813 122.914Q58.4873 122.942 58.391 122.962Q58.2947 122.981 58.1969 122.99Q58.0992 123 58.001 123L51.999 123Q51.9008 123 51.8031 122.99Q51.7053 122.981 51.609 122.962Q51.5127 122.942 51.4187 122.914Q51.3247 122.885 51.234 122.848Q51.1433 122.81 51.0567 122.764Q50.9701 122.718 50.8884 122.663Q50.8068 122.609 50.7309 122.546Q50.6549 122.484 50.5855 122.415Q50.5161 122.345 50.4538 122.269Q50.3914 122.193 50.3369 122.112Q50.2823 122.03 50.236 121.943Q50.1897 121.857 50.1522 121.766Q50.1146 121.675 50.0861 121.581Q50.0576 121.487 50.0384 121.391Q50.0192 121.295 50.0096 121.197Q50 121.099 50 121.001L50 11.999Q50 11.9008 50.0096 11.8031Q50.0192 11.7053 50.0384 11.609Q50.0576 11.5127 50.0861 11.4187Q50.1146 11.3247 50.1522 11.234Q50.1897 11.1433 50.236 11.0567Q50.2823 10.9701 50.3369 10.8884Q50.3914 10.8068 50.4538 10.7308Q50.5161 10.6549 50.5855 10.5855Q50.6549 10.5161 50.7308 10.4538Q50.8068 10.3915 50.8884 10.3369Q50.9701 10.2823 51.0567 10.236Q51.1433 10.1897 51.234 10.1522Q51.3247 10.1146 51.4187 10.0861Q51.5127 10.0576 51.609 10.0384Q51.7053 10.0193 51.8031 10.0096Q51.9008 10 51.999 10Z" id="Leg" fill="#C5CFD6" fill-rule="evenodd" stroke="none" />
        <path d="M102.999 10L109.001 10Q109.099 10 109.197 10.0096Q109.295 10.0193 109.391 10.0384Q109.487 10.0576 109.581 10.0861Q109.675 10.1146 109.766 10.1522Q109.857 10.1897 109.943 10.236Q110.03 10.2823 110.112 10.3369Q110.193 10.3915 110.269 10.4538Q110.345 10.5161 110.414 10.5855Q110.484 10.6549 110.546 10.7308Q110.609 10.8068 110.663 10.8884Q110.718 10.9701 110.764 11.0567Q110.81 11.1433 110.848 11.234Q110.885 11.3247 110.914 11.4187Q110.942 11.5127 110.962 11.609Q110.981 11.7053 110.99 11.8031Q111 11.9008 111 11.999L111 121.001Q111 121.099 110.99 121.197Q110.981 121.295 110.962 121.391Q110.942 121.487 110.914 121.581Q110.885 121.675 110.848 121.766Q110.81 121.857 110.764 121.943Q110.718 122.03 110.663 122.112Q110.609 122.193 110.546 122.269Q110.484 122.345 110.415 122.415Q110.345 122.484 110.269 122.546Q110.193 122.609 110.112 122.663Q110.03 122.718 109.943 122.764Q109.857 122.81 109.766 122.848Q109.675 122.885 109.581 122.914Q109.487 122.942 109.391 122.962Q109.295 122.981 109.197 122.99Q109.099 123 109.001 123L102.999 123Q102.901 123 102.803 122.99Q102.705 122.981 102.609 122.962Q102.513 122.942 102.419 122.914Q102.325 122.885 102.234 122.848Q102.143 122.81 102.057 122.764Q101.97 122.718 101.888 122.663Q101.807 122.609 101.731 122.546Q101.655 122.484 101.585 122.415Q101.516 122.345 101.454 122.269Q101.391 122.193 101.337 122.112Q101.282 122.03 101.236 121.943Q101.19 121.857 101.152 121.766Q101.115 121.675 101.086 121.581Q101.058 121.487 101.038 121.391Q101.019 121.295 101.01 121.197Q101 121.099 101 121.001L101 11.999Q101 11.9008 101.01 11.8031Q101.019 11.7053 101.038 11.609Q101.058 11.5127 101.086 11.4187Q101.115 11.3247 101.152 11.234Q101.19 11.1433 101.236 11.0567Q101.282 10.9701 101.337 10.8884Q101.391 10.8068 101.454 10.7308Q101.516 10.6549 101.585 10.5855Q101.655 10.5161 101.731 10.4538Q101.807 10.3915 101.888 10.3369Q101.97 10.2823 102.057 10.236Q102.143 10.1897 102.234 10.1522Q102.325 10.1146 102.419 10.0861Q102.513 10.0576 102.609 10.0384Q102.705 10.0193 102.803 10.0096Q102.901 10 102.999 10Z" id="Leg" fill="#C5CFD6" fill-rule="evenodd" stroke="none" />
      </g>
    </g>
  </g>
</svg>