<?xml version="1.0" encoding="utf-8"?>
<svg width="624.53516px" height="370.9936px" viewBox="0 0 624.53516 370.9936" version="1.1" xmlns:xlink="http://www.w3.org/1999/xlink" xmlns="http://www.w3.org/2000/svg">
  <defs>
    <path d="M43.719 9.49995C43.5646 8.54222 43.8701 8.07216 40.0194 5.374C36.1686 2.67584 29.9513 -0.506418 23.6894 0.878516C15.5628 2.67584 12.3351 8.03634 9.20134 10.6424C6.37634 12.9918 3.54186 13.2657 1.86205 16.1809C0.182245 19.0961 -0.711475 27.4829 0.749196 30.8172C2.76412 35.4168 6.73756 36.6555 9.63815 37.9806C14.6127 40.2533 21.6441 37.8531 21.8145 37.4555C23.132 34.3799 30.2243 25.7038 34.4902 22.0587C37.6271 19.3783 44.4432 13.995 43.719 9.49995Z" id="path_1" />
    <clipPath id="mask_1">
      <use xlink:href="#path_1" />
    </clipPath>
  </defs>
  <g id="编组-7">
    <g id="编组-6" transform="translate(404.7119 2.0200195)">
      <g id="Head" transform="matrix(-1 0 0 1 153.9417 0)">
        <g id="Head" transform="translate(39.62682 22.748764)">
          <path d="M27.9908 6.70277C32.2432 14.629 31.7379 34.7344 26.242 36.1511C24.0503 36.716 19.3815 35.3322 14.6296 32.4681L17.612 53.5697L0 53.5697L6.06262 25.3094C2.68146 21.3404 0.393084 16.4764 0.775496 11.0261C1.87738 -4.67819 23.7384 -1.22344 27.9908 6.70277Z" id="Head-[skin]" fill="#B28B67" fill-rule="evenodd" stroke="none" />
        </g>
        <g id="Turban" transform="translate(22.748709 16.87811)">
          <path d="M43.719 9.49995C43.5646 8.54222 43.8701 8.07216 40.0194 5.374C36.1686 2.67584 29.9513 -0.506418 23.6894 0.878516C15.5628 2.67584 12.3351 8.03634 9.20134 10.6424C6.37634 12.9918 3.54186 13.2657 1.86205 16.1809C0.182245 19.0961 -0.711475 27.4829 0.749196 30.8172C2.76412 35.4168 6.73756 36.6555 9.63815 37.9806C14.6127 40.2533 21.6441 37.8531 21.8145 37.4555C23.132 34.3799 30.2243 25.7038 34.4902 22.0587C37.6271 19.3783 44.4432 13.995 43.719 9.49995Z" id="Turban" fill="#5C63AB" fill-rule="evenodd" stroke="none" />
          <g clip-path="url(#mask_1)">
            <path d="M19.5446 31.7184C11.1228 21.3321 9.14138 8.80598 9.14138 8.80598L6.60451 10.4105C6.60451 10.4105 9.7245 24.099 19.5446 31.7184ZM22.7489 37.4254C9.11988 25.4501 5.86956 11.9924 5.86956 11.9924L2.93541 12.8575C2.93541 12.8575 6.97883 27.9064 22.7489 37.4254Z" id="SHade" fill="#000000" fill-opacity="0.2" fill-rule="evenodd" stroke="none" />
          </g>
        </g>
      </g>
      <g id="Bottom" transform="matrix(-1 0 0 1 219.82326 138.28662)">
        <path d="M93.7912 0L121.365 90.321L134.722 167.133L145.196 167.133L131.081 0L93.7912 0Z" id="[skin]-Leg" fill="#B28B67" fill-rule="evenodd" stroke="none" />
        <path d="M93.7912 0L121.365 90.321L134.722 167.133L145.196 167.133L131.081 0L93.7912 0Z" id="Shadow" fill="#000000" fill-opacity="0.101960786" fill-rule="evenodd" stroke="none" />
        <path d="M83.9269 0C85.7998 49.5911 83.5957 75.171 83.1765 79.6766C82.7573 84.1822 77.0175 113.396 63.4291 168.646L74.589 164.805C96.0642 114.134 103.382 87.7987 105.845 81.145C108.308 74.4911 114.85 47.4428 125.47 0L83.9269 0Z" id="[skin]-Leg" fill="#B28B67" fill-rule="evenodd" stroke="none" />
        <g id="Left-[shoe]" transform="translate(61.550472 146.10031)">
          <path d="M1.84699 19.0201C1.33547 20.4733 0.732835 22.428 0.732835 23.5711C0.732835 25.557 1.39322 29.3669 1.39322 29.3669C3.6925 29.3669 42.7213 29.3669 42.7213 29.3669C42.7213 29.3669 44.3323 24.0308 40.8614 23.6053C37.3906 23.1798 35.0949 22.8369 35.0949 22.8369L16.1372 14.369Q16.0915 14.3486 16.0441 14.3329Q15.9966 14.3172 15.9478 14.3062Q15.899 14.2953 15.8493 14.2893Q15.7997 14.2834 15.7497 14.2824Q15.6997 14.2814 15.6498 14.2854Q15.6 14.2894 15.5508 14.2983Q15.5016 14.3073 15.4535 14.3211Q15.4055 14.3349 15.359 14.3535Q15.3126 14.3721 15.2682 14.3952Q15.2239 14.4183 15.1821 14.4457Q15.1402 14.4731 15.1014 14.5046Q15.0625 14.536 15.0269 14.5712Q14.9914 14.6064 14.9596 14.6449Q14.9277 14.6835 14.8999 14.725Q14.872 14.7666 14.8485 14.8107Q14.8249 14.8548 14.8059 14.901C14.3666 15.9688 13.6755 17.6486 13.6755 17.6486C13.6755 17.6486 10.4624 19.1506 8.45353 19.1506C7.34145 19.1506 5.65198 18.5374 4.3652 17.9899C3.34932 17.5576 2.21353 17.9787 1.84699 19.0201Z" id="shoe" fill="#E4E4E4" fill-rule="evenodd" stroke="none" />
        </g>
        <g id="Right-[shoe]" transform="translate(130.42844 146.10031)">
          <path d="M1.84699 19.0201C1.33547 20.4733 0.732836 22.428 0.732836 23.5711C0.732836 25.557 1.39322 29.3669 1.39322 29.3669C3.6925 29.3669 42.7213 29.3669 42.7213 29.3669C42.7213 29.3669 44.3323 24.0308 40.8614 23.6053C37.3906 23.1798 35.0949 22.8369 35.0949 22.8369L16.1372 14.369Q16.0915 14.3486 16.0441 14.3329Q15.9966 14.3172 15.9478 14.3062Q15.899 14.2953 15.8493 14.2893Q15.7997 14.2834 15.7497 14.2824Q15.6997 14.2814 15.6498 14.2854Q15.6 14.2894 15.5508 14.2983Q15.5016 14.3073 15.4535 14.3211Q15.4055 14.3349 15.359 14.3535Q15.3126 14.3721 15.2682 14.3952Q15.2239 14.4183 15.1821 14.4457Q15.1402 14.4731 15.1014 14.5045Q15.0625 14.536 15.0269 14.5712Q14.9914 14.6064 14.9596 14.6449Q14.9277 14.6835 14.8999 14.725Q14.872 14.7666 14.8485 14.8107Q14.8249 14.8548 14.8059 14.901C14.3666 15.9688 13.6755 17.6486 13.6755 17.6486C13.6755 17.6486 10.4624 19.1506 8.45353 19.1506C7.34145 19.1506 5.65198 18.5374 4.3652 17.9899C3.34932 17.5576 2.21353 17.9787 1.84699 19.0201Z" id="shoe" fill="#E4E4E4" fill-rule="evenodd" stroke="none" />
        </g>
        <path d="M90.1276 0L101.852 46.0176L137.661 46.0176L132.322 0L90.1276 0Z" id="Bottom" fill="#69A1AC" fill-rule="evenodd" stroke="none" />
        <path d="M83.5328 0C77.7465 17.3785 81.3346 46.0176 81.3346 46.0176L117.877 46.0176L127.925 1.27724e-15L83.5328 0Z" id="Bottom" fill="#89C5CC" fill-rule="evenodd" stroke="none" />
      </g>
      <g id="Body" transform="matrix(-0.9902681 0.13917314 0.13917314 0.9902681 192.42198 48.2583)">
        <path d="M168.314 -6.6209L140.499 1.71376L147.601 13.5229L169.227 0.818367C179.322 0.218304 184.092 -0.775581 183.536 -2.16319C182.703 -4.24474 179.824 -3.25413 179.034 -4.56814C178.244 -5.88214 181.013 -9.30268 183.781 -12.4365C186.548 -15.5703 184.334 -15.7162 182.996 -15.4649C178.396 -13.6009 173.502 -10.6529 168.314 -6.6209ZM161.449 67.8222L138.042 50.6644L132.867 63.4325L156.046 73.0273C162.602 80.714 166.268 83.9183 167.044 82.6404C167.698 81.5628 167.186 80.5541 166.715 79.625C166.348 78.9013 166.006 78.2259 166.258 77.6038C166.834 76.183 171.237 76.3328 175.41 76.653C179.583 76.9732 178.367 75.1199 177.361 74.2047C173.101 71.6596 167.797 69.5322 161.449 67.8222Z" id="Arms-[skin]" fill="#B28B67" fill-rule="evenodd" stroke="none" />
        <path d="M101.677 4.45851C114.424 28.1837 132.857 46.3708 159.579 65.2769L149.46 76.6649C119.625 65.597 103.877 58.9191 96.1446 36.5037C94.2038 30.8779 92.8474 12.9438 91.6837 3.50779L101.677 4.45851Z" id="Coat-Back" fill="#2026A2" fill-rule="evenodd" stroke="none" />
        <path d="M66.0463 83.5095L122.553 83.5095C122.553 83.5095 103.353 25.0587 102.937 3.27555C102.923 2.53519 101.553 1.23059 100.947 1.40144C94.2995 3.27555 86.7202 -5.34916e-05 86.7202 -5.34916e-05C73.3243 21.5062 68.6917 47.9847 66.0463 83.5095Z" id="Shirt" fill="#F2F2F2" fill-rule="evenodd" stroke="none" />
        <path d="M100.894 32.811C109.72 70.6001 109.313 101.534 89.8286 101.534L59.6995 101.534C54.9143 69.433 67.4907 24.9236 79.15 2.47344C79.5953 1.61613 80.5432 -5.38826e-05 82.776 -5.38826e-05L91.5306 -5.38826e-05C91.5345 0.0115261 91.5383 0.0231061 91.5422 0.0346861C94.1766 0.0562229 97.0778 0.152362 100.22 0.256475C116.394 0.792482 138.948 1.53986 164.325 -6.5929L167.317 8.3315C144.412 23.037 121.218 34.4286 100.894 32.811Z" id="Coat-Front" fill="#1F28CF" fill-rule="evenodd" stroke="none" />
      </g>
    </g>
    <g id="Humaaan" transform="translate(0 13.02002)">
      <g id="HeadFront" transform="translate(54.28549 0)">
        <path d="M40.3831 51.4434C47.9492 51.4434 50.701 42.3851 54.9995 37.4142C58.0751 33.8576 63.324 34.9181 64.8777 29.939C68.7847 17.4184 58.3278 8.60623 44.6862 8.60623C31.0446 8.60623 21.8465 16.3348 19.8605 27.9529C17.8744 39.571 26.7414 51.4434 40.3831 51.4434Z" id="Hair-Back" fill="#191847" fill-rule="evenodd" stroke="none" />
        <g id="Head" transform="translate(35.748924 20.522581)">
          <path d="M13.1976 29.2905C17.4846 31.8745 21.6968 33.123 23.6741 32.6133C28.6321 31.3353 29.088 13.1974 25.2517 6.04683C21.4154 -1.10371 1.69374 -4.22038 0.699682 9.94713C0.354679 14.8642 2.41931 19.2524 5.4698 22.833L0 48.3274L15.8884 48.3274L13.1976 29.2905Z" id="Head-[skin]" fill="#B28B67" fill-rule="evenodd" stroke="none" />
        </g>
        <path d="M37.4814 20.5226C25.3114 32.4389 37.5279 45.1045 40.8752 45.1045C41.0913 43.3852 41.7504 41.7127 42.7161 40.1209C42.2032 39.4566 41.8992 38.6304 41.8992 37.7351C41.8992 35.5413 43.724 33.763 45.975 33.763C46.6781 33.763 47.3395 33.9364 47.9168 34.2418C52.7959 30.0807 58.9154 27.1799 61.9539 26.6095C67.2387 25.6174 49.6515 8.60624 37.4814 20.5226Z" id="Hair" fill="#191847" fill-rule="evenodd" stroke="none" />
      </g>
      <g id="BottomSkinny-Jeans-1" transform="translate(0 123.79749)">
        <path d="M84.7384 0L109.651 81.4443L121.719 150.707L131.181 150.707L118.429 0L84.7384 0Z" id="[skin]-Leg" fill="#B28B67" fill-rule="evenodd" stroke="none" />
        <path d="M84.7384 0L109.651 81.4443L121.719 150.707L131.181 150.707L118.429 0L84.7384 0Z" id="Shadow" fill="#000000" fill-opacity="0.101960786" fill-rule="evenodd" stroke="none" />
        <path d="M75.8261 0C77.5182 44.7173 75.5269 67.7833 75.1481 71.846C74.7694 75.9088 69.5836 102.252 57.3068 152.071L67.3895 148.608C86.7919 102.917 93.4035 79.1699 95.6288 73.1701C97.8541 67.1702 103.764 42.7802 113.36 0L75.8261 0Z" id="[skin]-Leg" fill="#B28B67" fill-rule="evenodd" stroke="none" />
        <g id="Left-[shoe]" transform="translate(55.609486 131.74171)">
          <path d="M1.60397 17.3358C1.15726 18.6231 0.662095 20.2716 0.662095 21.2546C0.662095 23.0453 1.25873 26.4808 1.25873 26.4808C3.33609 26.4808 38.5978 26.4808 38.5978 26.4808C38.5978 26.4808 40.0532 21.6691 36.9174 21.2854C33.7816 20.9017 31.7075 20.5926 31.7075 20.5926L14.6693 12.9968Q14.6236 12.9765 14.5762 12.9608Q14.5288 12.9451 14.48 12.9342Q14.4312 12.9234 14.3816 12.9174Q14.332 12.9114 14.2821 12.9105Q14.2321 12.9095 14.1823 12.9135Q14.1325 12.9175 14.0833 12.9265Q14.0342 12.9354 13.9862 12.9493Q13.9382 12.9631 13.8918 12.9816Q13.8454 13.0002 13.801 13.0232Q13.7567 13.0463 13.7149 13.0737Q13.6731 13.1011 13.6343 13.1325Q13.5954 13.1639 13.5599 13.1991Q13.5244 13.2342 13.4926 13.2727Q13.4607 13.3112 13.4329 13.3527Q13.4051 13.3942 13.3815 13.4383Q13.3579 13.4823 13.3389 13.5285C12.9429 14.4892 12.3555 15.9141 12.3555 15.9141C12.3555 15.9141 9.45252 17.2685 7.63757 17.2685C6.68348 17.2685 5.25897 16.7699 4.1223 16.2969C3.10301 15.8727 1.96593 16.2928 1.60397 17.3358Z" id="shoe" fill="#E4E4E4" fill-rule="evenodd" stroke="none" />
        </g>
        <g id="Right-[shoe]" transform="translate(117.83935 131.74171)">
          <path d="M1.60397 17.3358C1.15726 18.6231 0.662095 20.2716 0.662095 21.2546C0.662095 23.0453 1.25873 26.4808 1.25873 26.4808C3.33609 26.4808 38.5978 26.4808 38.5978 26.4808C38.5978 26.4808 40.0533 21.6691 36.9174 21.2854C33.7816 20.9017 31.7075 20.5926 31.7075 20.5926L14.6693 12.9968Q14.6236 12.9765 14.5762 12.9608Q14.5288 12.9451 14.48 12.9342Q14.4312 12.9234 14.3816 12.9174Q14.332 12.9114 14.2821 12.9105Q14.2321 12.9095 14.1823 12.9135Q14.1325 12.9175 14.0833 12.9265Q14.0342 12.9354 13.9862 12.9493Q13.9382 12.9631 13.8918 12.9816Q13.8454 13.0002 13.801 13.0232Q13.7567 13.0463 13.7149 13.0737Q13.6732 13.1011 13.6343 13.1325Q13.5955 13.1639 13.5599 13.1991Q13.5244 13.2342 13.4926 13.2727Q13.4607 13.3112 13.4329 13.3527Q13.4051 13.3942 13.3815 13.4383Q13.3579 13.4823 13.3389 13.5285C12.9429 14.4892 12.3555 15.9141 12.3555 15.9141C12.3555 15.9141 9.45253 17.2685 7.63758 17.2685C6.68348 17.2685 5.25897 16.7699 4.1223 16.2969C3.10301 15.8727 1.96593 16.2928 1.60397 17.3358Z" id="shoe" fill="#E4E4E4" fill-rule="evenodd" stroke="none" />
        </g>
        <path d="M81.4283 0L92.0206 41.495L124.374 41.495L119.55 0L81.4283 0Z" id="Bottom" fill="#69A1AC" fill-rule="evenodd" stroke="none" />
        <path d="M75.4702 0C70.2423 15.6705 73.4841 41.495 73.4841 41.495L106.499 41.495L115.578 1.15172e-15L75.4702 0Z" id="Bottom" fill="#89C5CC" fill-rule="evenodd" stroke="none" />
      </g>
      <g id="BodyLong-Sleeve-1" transform="translate(14.564371 54.285534)">
        <path d="M120.308 78.2928C107.735 104.477 54.8093 86.7972 54.8093 86.7972C54.8093 77.3949 62.5373 67.9427 62.7835 56.5103C63.018 45.6271 65.0529 12.6532 73.5456 1.51419C73.7001 1.01091 73.8571 0.506177 74.0163 0L74.6042 0.276613C74.696 0.181951 74.7884 0.0897318 74.8815 0L93.4117 2.86521C93.4117 13.2859 101.703 23.0359 106.948 31.4247C108.293 33.5751 109.81 35.7639 111.365 38.0068C119.239 49.3659 128.076 62.1141 120.308 78.2928Z" id="Shirt" fill="#C1DEE2" fill-rule="evenodd" stroke="none" />
        <path d="M96.5639 73.3432C97.8032 66.9479 98.6071 62.6783 98.9757 60.5345C108.848 71.6901 114.551 77.3326 116.085 77.462C118.971 77.7053 121.103 75.1466 121.71 75.8659C122.713 78.845 119.879 86.3022 114.462 87.3865C111.875 87.9043 107.872 82.5697 106.223 80.6795C105.574 79.9361 102.354 77.4907 96.5639 73.3432L96.5639 73.3432ZM113.616 39.246C116.175 39.246 117.55 40.304 119.063 42.4385C120.576 44.573 122.008 54.6397 119.579 54.6397C117.149 54.6397 106.971 50.7483 106.971 48.1321C106.971 45.5159 113.916 44.408 113.916 42.4385C113.916 40.469 111.057 39.246 113.616 39.246Z" id="Arms-[skin]" fill="#B28B67" fill-rule="evenodd" stroke="none" />
        <path d="M70.5476 12.3932C64.0486 39.4904 66.6966 62.3445 91.397 83.0748C91.1067 84.1162 90.9327 84.7384 90.9327 84.7384C61.9393 64.4746 61.925 39.918 70.5476 12.3932Z" id="Shade" fill="#000000" fill-opacity="0.2" fill-rule="evenodd" stroke="none" />
      </g>
    </g>
    <g id="Humaaan" transform="translate(159.56323 0)">
      <g id="HeadFront" transform="translate(60.96489 54.273617)">
        <g id="Head" transform="translate(40.147846 23.047714)">
          <path d="M14.8214 32.8945C19.6359 35.7964 24.3664 37.1985 26.5869 36.6261C32.155 35.1909 32.6669 14.8212 28.3586 6.79084C24.0503 -1.23951 1.9021 -4.73966 0.785734 11.171C0.39828 16.6931 2.71696 21.6212 6.1428 25.6425L0 54.2736L17.8434 54.2736L14.8214 32.8945Z" id="Head-[skin]" fill="#B28B67" fill-rule="evenodd" stroke="none" />
        </g>
        <path d="M44.9191 52.2718C42.6796 42.3085 36.2996 35.5168 37.2739 31.0636C38.2483 26.6104 42.468 25.5251 42.468 25.5251C42.468 25.5251 44.6504 16.6963 56.5452 18.0147C68.44 19.333 75.6999 24.2728 72.5647 35.1425C69.6827 35.1425 66.2035 34.1002 61.3926 35.8859C59.1028 36.7358 58.1172 41.1572 58.1172 41.1572L55.9431 41.1572C55.9431 41.1572 52.7781 35.9103 49.7016 37.301C46.6252 38.6917 48.303 44.0572 48.303 44.0572L47.232 52.2718L44.9191 52.2718Z" id="Hair" fill="#191847" fill-rule="evenodd" stroke="none" />
      </g>
      <g id="BottomSkinny-Jeans-1" transform="translate(0 193.30325)">
        <g id="Seat" transform="translate(7.4346976 31.225904)">
          <path d="M125.261 0L47.9684 0Q47.5756 0 47.1833 0.0192715Q46.791 0.038543 46.4002 0.0770395Q46.0093 0.115536 45.6208 0.173165Q45.2323 0.230794 44.8471 0.307416Q44.4619 0.384039 44.0809 0.47947Q43.6999 0.574901 43.3241 0.688911Q42.9482 0.802922 42.5784 0.935236Q42.2087 1.06755 41.8458 1.21785Q41.4829 1.36815 41.1279 1.53607Q40.7729 1.704 40.4265 1.88914Q40.0801 2.07428 39.7432 2.2762Q39.4063 2.47812 39.0798 2.69632Q38.7532 2.91452 38.4378 3.14848Q38.1223 3.38245 37.8187 3.63161Q37.5151 3.88077 37.2241 4.14452Q36.9331 4.40828 36.6554 4.686Q36.3776 4.96372 36.1139 5.25473Q35.8501 5.54574 35.601 5.84934Q35.3518 6.15294 35.1178 6.46841Q34.8839 6.78387 34.6657 7.11043Q34.4475 7.43699 34.2456 7.77387Q34.0436 8.11075 33.8585 8.45712Q33.6734 8.8035 33.5054 9.15855Q33.3375 9.51359 33.1872 9.87645Q33.0369 10.2393 32.9046 10.6091Q32.7723 10.9789 32.6583 11.3547Q32.5443 11.7306 32.4488 12.1116Q32.3534 12.4925 32.2768 12.8777Q32.2001 13.263 32.1425 13.6515Q32.0849 14.04 32.0464 14.4308Q32.0079 14.8217 31.9886 15.214Q31.9694 15.6062 31.9694 15.999L31.9694 76.1918Q31.9694 76.5846 31.9886 76.9768Q32.0079 77.3691 32.0464 77.76Q32.0849 78.1508 32.1425 78.5393Q32.2001 78.9278 32.2768 79.313Q32.3534 79.6982 32.4488 80.0792Q32.5443 80.4602 32.6583 80.8361Q32.7723 81.2119 32.9046 81.5817Q33.0369 81.9515 33.1872 82.3143Q33.3375 82.6772 33.5054 83.0322Q33.6734 83.3873 33.8585 83.7337Q34.0436 84.0801 34.2456 84.4169Q34.4475 84.7538 34.6657 85.0804Q34.8839 85.4069 35.1178 85.7224Q35.3518 86.0379 35.601 86.3415Q35.8501 86.6451 36.1139 86.9361Q36.3776 87.2271 36.6554 87.5048Q36.9331 87.7825 37.2241 88.0463Q37.5151 88.31 37.8187 88.5592Q38.1223 88.8083 38.4378 89.0423Q38.7532 89.2763 39.0798 89.4945Q39.4063 89.7127 39.7432 89.9146Q40.0801 90.1165 40.4265 90.3017Q40.7729 90.4868 41.1279 90.6547Q41.4829 90.8226 41.8458 90.9729Q42.2087 91.1232 42.5784 91.2555Q42.9482 91.3879 43.3241 91.5019Q43.6999 91.6159 44.0809 91.7113Q44.4619 91.8068 44.8471 91.8834Q45.2323 91.96 45.6208 92.0176Q46.0093 92.0753 46.4002 92.1138Q46.791 92.1523 47.1833 92.1715Q47.5756 92.1908 47.9684 92.1908L125.261 92.1908Q125.654 92.1908 126.046 92.1715Q126.438 92.1523 126.829 92.1138Q127.22 92.0753 127.609 92.0176Q127.997 91.96 128.382 91.8834Q128.767 91.8068 129.148 91.7113Q129.529 91.6159 129.905 91.5019Q130.281 91.3879 130.651 91.2555Q131.021 91.1232 131.384 90.9729Q131.746 90.8226 132.101 90.6547Q132.457 90.4868 132.803 90.3017Q133.149 90.1165 133.486 89.9146Q133.823 89.7127 134.15 89.4945Q134.476 89.2763 134.792 89.0423Q135.107 88.8083 135.411 88.5592Q135.714 88.31 136.005 88.0463Q136.296 87.7825 136.574 87.5048Q136.852 87.2271 137.116 86.9361Q137.379 86.6451 137.628 86.3415Q137.878 86.0379 138.112 85.7224Q138.345 85.4069 138.564 85.0804Q138.782 84.7538 138.984 84.4169Q139.186 84.0801 139.371 83.7337Q139.556 83.3873 139.724 83.0322Q139.892 82.6772 140.042 82.3143Q140.192 81.9515 140.325 81.5817Q140.457 81.2119 140.571 80.8361Q140.685 80.4602 140.781 80.0792Q140.876 79.6982 140.953 79.313Q141.029 78.9278 141.087 78.5393Q141.145 78.1508 141.183 77.76Q141.222 77.3691 141.241 76.9768Q141.26 76.5846 141.26 76.1918L141.26 15.999Q141.26 15.6062 141.241 15.214Q141.222 14.8217 141.183 14.4308Q141.145 14.04 141.087 13.6515Q141.029 13.263 140.953 12.8777Q140.876 12.4925 140.781 12.1116Q140.685 11.7306 140.571 11.3547Q140.457 10.9789 140.325 10.6091Q140.192 10.2393 140.042 9.87645Q139.892 9.51359 139.724 9.15855Q139.556 8.8035 139.371 8.45712Q139.186 8.11075 138.984 7.77387Q138.782 7.43699 138.564 7.11043Q138.345 6.78387 138.112 6.46841Q137.878 6.15294 137.628 5.84934Q137.379 5.54574 137.116 5.25473Q136.852 4.96372 136.574 4.686Q136.296 4.40828 136.005 4.14452Q135.714 3.88077 135.411 3.63161Q135.107 3.38245 134.792 3.14848Q134.476 2.91452 134.15 2.69632Q133.823 2.47812 133.486 2.2762Q133.149 2.07428 132.803 1.88914Q132.457 1.704 132.101 1.53607Q131.746 1.36815 131.384 1.21785Q131.021 1.06755 130.651 0.935236Q130.281 0.802922 129.905 0.688911Q129.529 0.574901 129.148 0.47947Q128.767 0.384039 128.382 0.307416Q127.997 0.230794 127.609 0.173165Q127.22 0.115536 126.829 0.0770395Q126.438 0.038543 126.046 0.0192715Q125.654 0 125.261 0ZM116.444 20.8172L56.7857 20.8172Q56.5892 20.8172 56.3937 20.8365Q56.1982 20.8558 56.0055 20.8941Q55.8128 20.9324 55.6248 20.9894Q55.4368 21.0465 55.2553 21.1217Q55.0738 21.1968 54.9006 21.2894Q54.7273 21.3821 54.5639 21.4912Q54.4006 21.6003 54.2487 21.725Q54.0969 21.8496 53.9579 21.9885Q53.819 22.1274 53.6944 22.2793Q53.5698 22.4312 53.4606 22.5945Q53.3515 22.7579 53.2589 22.9311Q53.1662 23.1044 53.0911 23.2859Q53.0159 23.4674 52.9589 23.6554Q52.9018 23.8434 52.8635 24.0361Q52.8252 24.2288 52.8059 24.4243Q52.7867 24.6198 52.7867 24.8162L52.7867 67.3745Q52.7867 67.571 52.8059 67.7665Q52.8252 67.962 52.8635 68.1547Q52.9018 68.3473 52.9589 68.5353Q53.0159 68.7233 53.0911 68.9048Q53.1662 69.0863 53.2589 69.2596Q53.3515 69.4329 53.4606 69.5962Q53.5698 69.7596 53.6944 69.9114Q53.819 70.0633 53.9579 70.2022Q54.0969 70.3411 54.2487 70.4658Q54.4006 70.5904 54.5639 70.6995Q54.7273 70.8087 54.9005 70.9013Q55.0738 70.9939 55.2553 71.0691Q55.4368 71.1443 55.6248 71.2013Q55.8128 71.2583 56.0055 71.2967Q56.1982 71.335 56.3937 71.3542Q56.5892 71.3735 56.7857 71.3735L116.444 71.3735Q116.64 71.3735 116.836 71.3542Q117.031 71.335 117.224 71.2967Q117.417 71.2583 117.605 71.2013Q117.793 71.1443 117.974 71.0691Q118.156 70.9939 118.329 70.9013Q118.502 70.8087 118.666 70.6995Q118.829 70.5904 118.981 70.4658Q119.133 70.3411 119.272 70.2022Q119.41 70.0633 119.535 69.9114Q119.66 69.7596 119.769 69.5962Q119.878 69.4329 119.971 69.2596Q120.063 69.0863 120.138 68.9048Q120.214 68.7233 120.271 68.5353Q120.328 68.3473 120.366 68.1546Q120.404 67.962 120.424 67.7665Q120.443 67.571 120.443 67.3745L120.443 24.8162Q120.443 24.6198 120.424 24.4243Q120.404 24.2288 120.366 24.0361Q120.328 23.8434 120.271 23.6554Q120.214 23.4674 120.138 23.2859Q120.063 23.1044 119.971 22.9311Q119.878 22.7579 119.769 22.5945Q119.66 22.4312 119.535 22.2793Q119.41 22.1274 119.272 21.9885Q119.133 21.8496 118.981 21.725Q118.829 21.6003 118.666 21.4912Q118.502 21.3821 118.329 21.2894Q118.156 21.1968 117.974 21.1217Q117.793 21.0465 117.605 20.9894Q117.417 20.9324 117.224 20.8941Q117.031 20.8558 116.836 20.8365Q116.64 20.8172 116.444 20.8172Z" id="Seat" fill="#C5CFD6" fill-rule="evenodd" stroke="none" />
        </g>
        <path d="M222.417 119.699C207.759 101.8 197.841 88.5295 192.663 79.8891C183.797 65.0947 176.54 51.9303 174.251 46.9016C168.79 34.91 186.822 29.2948 190.903 34.8881C197.08 43.3538 210.271 69.9929 230.477 114.805L222.417 119.699Z" id="Legs-[skin]" fill="#B28B67" fill-rule="evenodd" stroke="none" />
        <path d="M192.379 114.495L165.1 45.8253C159.265 33.3073 187.441 25.0789 191.729 30.9045C201.465 44.1305 224.603 96.3052 227.503 100.246L192.379 114.495Z" id="LegLower" fill="#2F3676" fill-rule="evenodd" stroke="none" />
        <path d="M119.722 100.722C125.036 92.9708 144.364 66.8926 154.892 56.1025C157.917 53.0019 160.869 50.0259 163.661 47.2526C171.96 39.0094 188.485 52.8645 180.202 60.3727C159.573 79.071 129.475 104.313 126.96 106.564C123.436 109.718 116.382 105.594 119.722 100.722Z" id="Legs-[skin]" fill="#B28B67" fill-rule="evenodd" stroke="none" />
        <g id="Left-[shoe]" transform="matrix(0.8660254 0.5 -0.5 0.8660254 128.68317 79.869934)">
          <path d="M1.88231 19.2365C1.36149 20.7106 0.743274 22.7056 0.743274 23.8695C0.743274 25.8805 1.41331 29.7386 1.41331 29.7386C3.74623 29.7386 43.346 29.7386 43.346 29.7386C43.346 29.7386 44.9805 24.3349 41.4589 23.9041C37.9373 23.4732 35.608 23.126 35.608 23.126L16.3582 14.5444Q16.3126 14.524 16.2651 14.5083Q16.2177 14.4926 16.1689 14.4818Q16.1201 14.4709 16.0705 14.4649Q16.0209 14.459 15.971 14.458Q15.921 14.457 15.8712 14.461Q15.8214 14.465 15.7723 14.474Q15.7231 14.483 15.6751 14.4968Q15.6271 14.5106 15.5807 14.5291Q15.5343 14.5477 15.49 14.5708Q15.4457 14.5938 15.4039 14.6212Q15.3621 14.6486 15.3232 14.68Q15.2844 14.7114 15.2489 14.7466Q15.2133 14.7817 15.1815 14.8202Q15.1497 14.8587 15.1218 14.9002Q15.094 14.9417 15.0704 14.9858Q15.0469 15.0299 15.0278 15.076C14.5815 16.1587 13.8752 17.872 13.8752 17.872C13.8752 17.872 10.6151 19.3931 8.57691 19.3931C7.44098 19.3931 5.71131 18.7637 4.4025 18.2065C3.38672 17.774 2.25009 18.1956 1.88231 19.2365Z" id="shoe" fill="#E4E4E4" fill-rule="evenodd" stroke="none" />
        </g>
        <g id="Right-[shoe]" transform="translate(214.1205 98.13859)">
          <path d="M1.88258 19.2367C1.36175 20.7108 0.743522 22.7058 0.743522 23.8697C0.743522 25.8808 1.41357 29.739 1.41357 29.739C3.74653 29.739 43.3469 29.739 43.3469 29.739C43.3469 29.739 44.9814 24.3352 41.4597 23.9043C37.9381 23.4735 35.6087 23.1263 35.6087 23.1263L16.3587 14.5445Q16.313 14.5241 16.2656 14.5084Q16.2181 14.4927 16.1694 14.4819Q16.1206 14.471 16.071 14.465Q16.0214 14.4591 15.9714 14.4581Q15.9215 14.4571 15.8717 14.4611Q15.8219 14.4651 15.7727 14.4741Q15.7236 14.4831 15.6756 14.4969Q15.6275 14.5107 15.5811 14.5292Q15.5347 14.5478 15.4904 14.5709Q15.4461 14.594 15.4043 14.6213Q15.3625 14.6487 15.3237 14.6801Q15.2848 14.7116 15.2493 14.7467Q15.2138 14.7818 15.182 14.8203Q15.1501 14.8589 15.1223 14.9003Q15.0944 14.9418 15.0709 14.9859Q15.0473 15.03 15.0283 15.0762C14.5819 16.1589 13.8757 17.8721 13.8757 17.8721C13.8757 17.8721 10.6155 19.3932 8.57727 19.3932C7.44132 19.3932 5.71161 18.7639 4.40278 18.2066C3.38699 17.7741 2.25036 18.1957 1.88258 19.2367Z" id="shoe" fill="#E4E4E4" fill-rule="evenodd" stroke="none" />
        </g>
        <path d="M155.283 49.2552C155.283 49.2552 121.273 43.7145 109.722 41.6778C87.7725 37.8075 81.3718 25.9958 85.1563 0.224707L125.598 0.224707C133.626 2.54297 192.684 28.9001 192.684 28.9001C199.768 32.4166 198.449 42.7851 197.154 46.201C197.075 46.41 161.328 107.59 161.328 107.59L128.245 86.5148L155.346 51.7387C155.346 51.7387 156.419 49.5764 155.283 49.2552Z" id="Leg-and-Butt" fill="#5C63AB" fill-rule="evenodd" stroke="none" />
      </g>
      <g id="BodyLong-Sleeve-1" transform="translate(16.35644 115.2385)">
        <path d="M165.554 85.9715L141.839 68.5569L136.597 81.5162L160.081 91.2545Q169.431 102.238 171.044 101.199Q171.15 101.131 171.223 101.012C171.885 99.918 171.367 98.8942 170.89 97.9512C170.518 97.2166 170.171 96.531 170.427 95.8996C171.01 94.4576 175.472 94.6094 179.699 94.9345C183.927 95.2596 182.695 93.3785 181.676 92.4496C177.36 89.8664 171.986 87.7071 165.554 85.9715ZM41.1867 116.657C43.3654 112.237 50.7849 69.1579 50.7849 69.1579L66.3213 69.219C66.3213 69.219 51.9317 115.671 50.7849 118.513C49.295 122.205 51.8257 127.57 53.5417 131.207C53.8072 131.77 54.0532 132.292 54.2618 132.759C51.8807 133.825 50.7369 132.537 49.5311 131.179C48.1691 129.645 46.7279 128.023 43.3353 129.601C42.0246 130.211 40.7843 130.932 39.5726 131.636C35.3869 134.069 31.5417 136.304 26.3109 133.077C25.4816 132.565 24.5728 130.638 26.7685 129.133C32.2387 125.382 40.1216 118.817 41.1867 116.657Z" id="Arms-[skin]" fill="#B28B67" fill-rule="evenodd" stroke="none" />
        <path d="M94.9366 3.96416L101.365 2.86148C125.218 23.4669 135.015 63.0523 164.253 84.0223L157.216 92.7453C106.494 86.4651 93.922 38.1804 94.9366 3.96416Z" id="Coat-Back" fill="#E87613" fill-rule="evenodd" stroke="none" />
        <path d="M66.9128 84.7561C66.9128 84.7561 105.579 84.7561 123.797 84.7561C126.396 84.7561 125.907 81.0027 125.531 79.1088C121.194 57.2503 104.266 33.6879 104.266 2.57296L87.8578 0C74.2862 21.8272 69.5929 48.7009 66.9128 84.7561Z" id="Shirt" fill="#DDE3E9" fill-rule="evenodd" stroke="none" />
        <path d="M69.0922 21.1986C66.1066 20.9852 63.4118 19.7359 61.7083 16.6621C55.7111 5.84078 57.877 -0.117179 64.2861 -2.07559C67.8103 -3.1525 71.1249 -2.41745 75.0926 -1.53755C78.3404 -0.817306 82.0258 -1.23978e-05 86.6221 -1.23978e-05C87.0674 -1.23978e-05 87.4725 0.0298185 87.8404 0.0868793L93.285 0.397565C93.285 0.397565 115.391 75.318 105.478 100.369L60.5165 100.369C57.9599 106.509 55.453 111.867 53.0907 115.982L40.8911 115.982C39.5785 73.5435 55.6456 40.8884 69.0922 21.1986Z" id="Coat-Front" fill="#FF9B21" fill-rule="evenodd" stroke="none" />
        <path d="M60.5164 100.369C63.8708 92.3128 67.3105 82.9096 70.6206 73.1984C71.8528 83.8929 73.9048 94.6342 77.3213 100.369L60.5164 100.369Z" id="Shade" fill="#000000" fill-opacity="0.101960786" fill-rule="evenodd" stroke="none" />
      </g>
    </g>
  </g>
</svg>