<?xml version="1.0" encoding="utf-8"?>
<svg width="593.8296px" height="532.8922px" viewBox="0 0 593.8296 532.8922" version="1.1" xmlns:xlink="http://www.w3.org/1999/xlink" xmlns="http://www.w3.org/2000/svg">
  <g id="SceneHome" transform="translate(-22 118.5697)">
    <g id="Background-Shape-2" transform="translate(45.77098 239.0868)" opacity="0.50451076">
      <path d="M524.42 109.111C532.068 157.879 346.599 189.689 186.962 167.49C27.3247 145.29 -45.9093 58.5999 30.267 12.4078C106.443 -33.7844 516.773 60.3431 524.42 109.111Z" id="Background-Shape" fill="#F2F2F2" fill-rule="evenodd" stroke="none" />
    </g>
    <path d="M285.295 6.78271C288.762 4.13192 294.142 5.82133 297.633 7.38602C298.978 7.98948 302.416 9.91923 304.965 12.0912C304.628 10.5857 304.328 9.0671 304.065 7.53603C302.987 1.24071 302.244 -5.17387 301.887 -11.5513C301.793 -13.2146 301.915 -15.0729 302.037 -16.9559C302.079 -17.5938 302.121 -18.2346 302.155 -18.8715C302.015 -19.0219 301.921 -19.2297 301.881 -19.5111C301.843 -19.2053 301.848 -19.058 301.818 -19.0505C301.799 -19.0458 301.767 -19.095 301.702 -19.1936C301.677 -19.2319 301.647 -19.2776 301.612 -19.3306C299.032 -23.1904 296.865 -27.5395 296.568 -32.3205C296.316 -36.3753 299.646 -44.0473 304.367 -38.7363C306.479 -36.3644 305.93 -19.7063 302.758 -18.6854C303.605 -13.1656 304.671 -7.65508 306.005 -2.21454C306.205 -2.24989 306.409 -2.253 306.611 -2.22548C306.592 -3.57808 306.59 -5.05408 306.645 -5.56155C307.121 -9.93354 310.771 -18.8098 316.583 -17.0864C321.048 -15.762 318.311 -10.3101 316.791 -7.92385C314.345 -4.08203 311.578 -2.41845 308.073 -0.420601C308.003 0.405006 307.471 0.884987 306.843 1.04102C309.189 9.82724 312.272 18.3966 316.307 26.4909C316.841 23.9363 317.497 20.6974 317.902 20.0532C319.88 16.9044 324.257 13.0583 328.294 14.9215C336.772 18.84 327.57 30.102 320.352 31.3271C320.052 31.742 319.734 32.0757 319.396 32.267C320.799 34.7103 322.298 37.1029 323.901 39.4337C326.307 42.9397 328.892 46.4344 331.602 49.9086C331.685 47.191 332.758 41.1339 333.062 40.4832C334.913 36.5311 340.247 32.4646 344.575 35.2721C349.443 38.4376 345.029 44.4193 342.253 47.1264C341.115 48.2363 335.487 52.3037 333.501 52.3221C340.049 60.5149 347.276 68.5676 354.624 76.329C354.015 72.8543 353.22 63.2856 353.309 62.2237C353.765 56.742 357.365 47.9743 364.459 50.1107C371.34 52.1802 368.296 61.2884 365.94 65.6303C364.513 68.2581 362.54 70.9282 360.161 72.7609C359.215 73.4891 357.631 73.9227 356.826 74.7067C356.021 75.4925 356.363 76.5174 355.502 77.2576C359.473 81.4339 363.472 85.5231 367.413 89.4988C369.273 91.3753 371.166 93.2154 373.079 95.0325C374.125 94.5983 375.617 95.1693 375.539 96.6518C375.528 96.8672 375.478 97.0529 375.411 97.2233C376.86 98.5723 378.318 99.9118 379.788 101.237C379.754 100.851 379.764 100.307 379.832 99.5549C378.773 101.061 378.818 98.8671 378.852 97.1945C378.863 96.6035 378.874 96.0776 378.834 95.8031C378.346 92.4322 377.41 89.1651 377.441 85.726C377.487 80.7533 380.634 72.4176 387.257 75.3787C393.346 78.0965 391.131 85.4666 388.833 90.0871C387.379 93.011 385.389 95.6219 383.31 98.1213C382.388 99.2299 381.216 101.313 380.478 101.858C388.664 109.202 397.13 116.234 405.471 123.406C405.584 122.919 405.676 122.436 405.756 121.985C405.595 122.167 405.375 122.252 405.094 122.236C405.019 121.862 404.91 121.366 404.779 120.771C403.186 113.498 398.332 91.3466 411.474 95.6398C421.104 98.7943 414.307 118.082 407.125 124.829C411.483 128.596 415.8 132.412 420.016 136.341C423.067 139.184 426.027 142.124 428.875 145.163C427.402 141.228 426.013 136.135 426.925 132.082C428.251 126.183 434.469 120.614 440.539 123.97C448.106 128.173 442.285 133.912 436.825 139.294C434.038 142.042 431.345 144.697 430.577 147.006C439.63 156.973 447.359 168.046 452.523 180.659C458.14 194.376 463.353 212.807 460.47 228.153C461.002 221.405 458.725 212.933 457.126 206.983C456.908 206.172 456.703 205.409 456.519 204.703C454.116 195.474 450.703 186.495 446.204 178.091C438.999 164.631 429.481 153.204 418.493 142.83C414.456 144.238 409.858 147.581 407.565 148.571C403.361 150.388 395.288 152.99 392.61 147.27C389.976 141.646 396.698 138.5 400.864 137.239C404.891 136.023 408.52 136.17 412.276 137.167C405.39 131.054 398.305 125.171 391.258 119.247C389.744 120.49 388.071 122.287 386.296 124.195C380.66 130.25 373.983 137.424 368.02 131.563C359.02 122.718 376.232 113.728 383.565 114.43C384.465 114.516 385.336 114.706 386.185 114.964C378.707 108.609 371.345 102.122 364.382 95.1794C363.132 95.4076 361.143 97.2484 358.754 99.4599C353.384 104.43 345.991 111.272 340.422 105.885C336.402 101.996 337.779 95.9391 341.664 92.4759C345.565 88.9979 351.221 89.0036 356.028 90.1752C358.106 90.679 360.023 91.6407 361.81 92.8129C361.886 92.8169 361.959 92.8213 362.032 92.8252C355.18 85.921 348.287 78.862 341.648 71.5621C341.532 71.5993 341.413 71.6377 341.294 71.6767C340.892 72.1691 340.22 72.3492 339.605 72.2404C339.265 72.3567 338.919 72.4766 338.565 72.5988C333.306 74.4164 326.547 76.7524 321.305 75.7448C317.447 75.0034 313.947 71.8631 317.212 67.997C319.867 64.8529 327.07 65.3045 330.583 66.0492C333.017 66.566 335.758 68.4749 338.388 69.8093C338.59 69.4011 338.943 69.139 339.344 69.0132C332.788 61.6774 326.532 54.0882 320.858 46.169C319.14 46.4354 317.236 47.1908 315.271 47.9699C310.544 49.8447 305.47 51.8567 301.829 47.5234C296.453 41.1246 306.563 37.39 311.369 37.9978C312.992 38.2028 314.592 38.6633 316.137 39.2716C312.008 32.7518 308.854 25.7827 306.639 18.4636C306.584 18.4914 306.54 18.5211 306.477 18.5486C306.535 18.5171 306.581 18.4831 306.635 18.4514C306.414 17.7192 306.202 16.9836 306 16.2454C305.625 16.0362 305.274 15.8822 305.106 15.8188C307.289 17.3262 298.078 18.0638 296.352 18.2019C292.538 18.5068 287.429 18.6207 284.631 15.4921C282.281 12.8642 282.418 8.98171 285.295 6.78271ZM290.031 -24.4279C293.053 -22.9266 295.918 -20.8824 297.908 -18.0617C298.582 -17.1055 300.553 -10.7778 301.165 -10.7457C295.051 -10.6089 284.224 -10.6942 281.296 -17.5945C278.562 -24.0384 285.115 -26.8654 290.031 -24.4279ZM459.566 234.114C460.316 232.435 460.717 230.399 460.879 228.175C460.559 230.215 460.128 232.202 459.566 234.114Z" id="Leaf-Bottom" fill="#F2F2F2" fill-rule="evenodd" stroke="none" />
    <path d="M236.297 62.3299C233.766 60.4144 229.837 61.638 227.288 62.7707C226.306 63.2076 223.795 64.6043 221.933 66.1758C222.179 65.087 222.399 63.9888 222.592 62.8816C223.381 58.3291 223.926 53.6904 224.189 49.0788C224.258 47.876 224.17 46.5322 224.081 45.1708C224.051 44.7095 224.021 44.2462 223.996 43.7857C224.098 43.6768 224.167 43.5266 224.196 43.3231C224.224 43.5441 224.221 43.6506 224.243 43.6561C224.256 43.6596 224.28 43.624 224.327 43.5526C224.345 43.5249 224.367 43.4918 224.393 43.4535C226.278 40.6616 227.862 37.5159 228.081 34.0587C228.266 31.1266 225.837 25.5802 222.389 29.4224C220.846 31.1383 221.24 43.1834 223.556 43.9205C222.935 47.9121 222.155 51.8972 221.179 55.8317C221.033 55.8062 220.884 55.804 220.736 55.824C220.751 54.846 220.753 53.7787 220.713 53.4117C220.367 50.2505 217.705 43.8335 213.461 45.0818C210.2 46.0412 212.197 49.9824 213.305 51.7073C215.09 54.4844 217.11 55.6863 219.668 57.1297C219.719 57.7266 220.107 58.0735 220.566 58.1861C218.85 64.5402 216.595 70.7378 213.646 76.5923C213.258 74.7453 212.78 72.4035 212.484 71.9379C211.042 69.6617 207.847 66.8822 204.899 68.231C198.707 71.0675 205.422 79.2077 210.692 80.0908C210.91 80.3907 211.142 80.6319 211.389 80.7701C210.364 82.5374 209.269 84.268 208.097 85.954C206.339 88.4901 204.45 91.018 202.47 93.5312C202.41 91.5661 201.629 87.1867 201.408 86.7163C200.058 83.8592 196.164 80.9207 193.003 82.9525C189.448 85.2432 192.668 89.5669 194.695 91.5234C195.525 92.3255 199.633 95.2646 201.082 95.2771C196.299 101.204 191.019 107.029 185.651 112.644C186.097 110.132 186.681 103.212 186.617 102.444C186.286 98.4807 183.66 92.1421 178.48 93.6895C173.455 95.1885 175.674 101.774 177.393 104.912C178.434 106.812 179.873 108.742 181.61 110.066C182.3 110.592 183.457 110.905 184.044 111.472C184.632 112.04 184.381 112.781 185.01 113.316C182.109 116.337 179.188 119.296 176.308 122.172C174.95 123.53 173.567 124.861 172.17 126.176C171.406 125.862 170.317 126.275 170.373 127.347C170.381 127.503 170.417 127.637 170.466 127.76C169.408 128.737 168.342 129.706 167.269 130.664C167.293 130.385 167.286 129.992 167.237 129.448C168.01 130.537 167.978 128.95 167.954 127.741C167.946 127.314 167.938 126.933 167.967 126.735C168.325 124.297 169.01 121.934 168.988 119.448C168.956 115.852 166.661 109.826 161.825 111.969C157.378 113.937 158.993 119.265 160.668 122.605C161.729 124.719 163.181 126.606 164.699 128.413C165.371 129.214 166.226 130.72 166.765 131.114C160.785 136.427 154.601 141.515 148.508 146.704C148.426 146.352 148.359 146.003 148.301 145.677C148.418 145.808 148.579 145.87 148.784 145.858C148.839 145.588 148.919 145.229 149.014 144.798C150.181 139.539 153.733 123.52 144.135 126.629C137.103 128.913 142.059 142.858 147.3 147.734C144.117 150.46 140.963 153.22 137.883 156.063C135.655 158.12 133.492 160.247 131.412 162.445C132.489 159.6 133.505 155.916 132.841 152.986C131.874 148.721 127.337 144.696 122.904 147.125C117.377 150.167 121.625 154.315 125.609 158.204C127.644 160.19 129.609 162.109 130.169 163.779C123.555 170.989 117.908 178.999 114.133 188.121C110.027 198.042 106.213 211.371 108.313 222.467C107.926 217.588 109.592 211.46 110.762 207.157C110.921 206.571 111.071 206.019 111.206 205.509C112.964 198.835 115.459 192.341 118.747 186.262C124.013 176.526 130.967 168.26 138.993 160.754C141.94 161.771 145.296 164.187 146.97 164.902C150.039 166.214 155.932 168.093 157.89 163.956C159.815 159.888 154.908 157.615 151.867 156.705C148.927 155.827 146.277 155.935 143.535 156.657C148.565 152.235 153.74 147.978 158.887 143.692C159.992 144.59 161.213 145.889 162.509 147.268C166.622 151.644 171.494 156.829 175.85 152.589C182.424 146.19 169.861 139.696 164.506 140.206C163.849 140.268 163.213 140.406 162.593 140.593C168.055 135.994 173.433 131.301 178.519 126.279C179.432 126.443 180.883 127.773 182.627 129.372C186.547 132.963 191.942 137.908 196.01 134.011C198.946 131.197 197.943 126.818 195.108 124.315C192.261 121.802 188.131 121.808 184.621 122.657C183.104 123.022 181.704 123.718 180.398 124.566C180.343 124.569 180.29 124.573 180.236 124.575C185.241 119.58 190.277 114.473 195.128 109.193C195.212 109.219 195.299 109.247 195.386 109.275C195.679 109.631 196.169 109.761 196.619 109.682C196.867 109.766 197.12 109.853 197.378 109.941C201.217 111.253 206.151 112.94 209.979 112.209C212.796 111.672 215.353 109.4 212.97 106.606C211.033 104.333 205.773 104.662 203.209 105.202C201.431 105.577 199.429 106.958 197.508 107.924C197.361 107.629 197.104 107.439 196.81 107.349C201.6 102.042 206.171 96.5516 210.316 90.8232C211.57 91.0152 212.961 91.5607 214.395 92.1233C217.846 93.4772 221.549 94.9302 224.21 91.7955C228.137 87.1666 220.757 84.4698 217.248 84.9111C216.063 85.0599 214.894 85.3935 213.766 85.8339C216.783 81.1179 219.088 76.0775 220.708 70.7842C220.749 70.8043 220.781 70.8258 220.827 70.8456C220.784 70.8229 220.751 70.7983 220.711 70.7754C220.873 70.2458 221.028 69.7139 221.176 69.18C221.45 69.0286 221.706 68.9171 221.829 68.8712C220.234 69.962 226.96 70.492 228.219 70.5912C231.004 70.8102 234.734 70.8907 236.778 68.6274C238.495 66.7263 238.396 63.9189 236.297 62.3299ZM232.216 39.4458C230.057 40.5181 228.011 41.9783 226.59 43.993C226.108 44.676 224.7 49.1959 224.263 49.2188C228.631 49.3165 236.364 49.2556 238.455 44.3267C240.408 39.724 235.727 37.7047 232.216 39.4458ZM109.104 225.971C108.385 224.863 108.019 223.51 107.896 222.029C108.18 223.385 108.576 224.704 109.104 225.971Z" id="Leaf-Top" fill="#C1DEE2" fill-opacity="0.2" fill-rule="evenodd" stroke="none" />
    <g id="Plant-Right" transform="translate(357.8296 10.430298)" opacity="0.7">
      <path d="M27.8219 115.77C41.4744 115.062 58.3586 123.031 59.8152 137.871C60.8732 148.653 60.5455 159.405 62.183 170.172C63.4923 178.776 66.2615 187.036 70.0382 194.874C73.6698 202.411 81.2031 208.827 83.1625 216.879C84.4112 222.01 83.7122 229.227 81.9901 234.245C79.8957 240.347 81.0088 239.865 85.1819 244.985C93.3594 255.018 100.723 265.307 105.93 277.29C113.43 294.55 118.348 314.725 115.564 333.618C115.21 336.017 114.79 344.627 111.486 345.229C107.796 345.902 109.522 340.978 109.719 339.387C110.974 329.238 112.09 320.367 110.575 310.059C104.732 270.288 76.2008 244.085 57.6233 210.331C56.602 208.59 54.446 204.445 52.947 201.711C50.5804 197.393 48.2011 189.179 44.9973 185.977C38.9634 179.947 44.5107 192.071 45.6864 194.385C47.173 197.313 48.8083 200.425 50.3317 202.99C57.3017 214.882 65.0816 227.862 72.2802 240.12C41.1469 247.214 19.2208 209.785 10.8661 185.178C3.98241 164.905 -4.25363 117.505 27.8219 115.77" id="Leaf-Me-Alone!" fill="#69A1AC" fill-rule="evenodd" stroke="none" />
      <path d="M210.805 78.1212C187.983 79.932 173.331 94.9918 166.511 116.056C162.835 127.407 162.413 139.068 160.37 150.734C157.298 168.284 150.686 181.585 137.764 194.089C133.762 197.961 130.812 201.937 128.716 206.191C124.554 210.438 120.931 215.244 118.269 221.12C114.869 228.624 113.907 237.628 117.832 245.109C118.888 247.121 121.521 251.158 124.25 252.992C114.033 274.752 108.415 298.584 109.048 322.386C109.431 336.753 110.132 351.127 110.951 365.477C111.171 369.33 112.426 375.693 114.31 369.231C116.035 363.32 113.872 354.041 113.672 347.867C112.698 317.786 111.866 290.435 124.248 262.331C125.547 259.385 126.924 256.463 128.357 253.565C128.442 253.516 128.52 253.457 128.599 253.4C128.653 253.442 128.703 253.487 128.758 253.529C128.849 253.365 128.975 253.171 129.121 252.954C129.532 252.529 129.891 251.993 130.233 251.395C131.331 249.873 132.574 248.084 132.581 247.105C132.581 247.098 132.577 247.086 132.577 247.078C140.242 234.565 149.022 222.742 157.99 211.149C157.923 211.234 167.718 197.897 166.204 205.272C165.474 208.827 158.269 215.595 155.359 219.36C148.922 227.735 141.363 238.348 135.082 248.61C134.237 249.096 133.043 251.48 132.179 253.257C131.702 254.157 131.257 255.064 130.82 255.855C153.077 263.208 170.39 248.396 182.196 231.168C182.21 231.147 182.223 231.126 182.236 231.106C185.829 226.346 189.509 221.619 194.107 217.856C201.777 211.576 209.992 210.468 219.036 207.378C243.7 198.951 254.186 166.987 257.516 143.27C261.274 116.513 242.894 75.4829 210.805 78.1212" id="Leaf-Me-Alone!" fill="#89C5CC" fill-rule="evenodd" stroke="none" />
      <path d="M165.723 3.19047C142.299 27.5693 130.982 61.3832 122.022 93.1717C112.014 128.676 105.403 164.728 105.149 201.642C104.983 225.895 104.323 250.299 105.739 274.523C106.241 283.126 107.099 291.745 108.462 300.255C108.575 300.955 111.626 319.958 114.545 315.53C116.205 313.012 111.417 295.817 111.056 292.953C109.021 276.822 108.548 260.573 108.647 244.326C108.81 217.575 108.021 190.962 110.733 164.309C111.137 160.33 111.457 156.151 112.402 152.258C113.406 148.119 112.127 149.926 115.396 148.287C118.573 146.694 122.498 146.922 125.794 144.924C138.866 136.997 145.553 116.635 150.758 103.275C156.711 87.9976 160.329 71.7061 163.219 55.6284C165.341 43.8157 166.858 32.0749 167.716 20.1101C167.987 16.3392 168.003 12.3959 168.744 8.68807C168.944 7.6879 169.945 5.91861 169.909 5.03288C169.832 3.15831 168.701 2.05583 168.608 0.480673C167.627 1.3631 166.665 2.26702 165.723 3.19047" id="Leaf-Me-Alone!" fill="#89C5CC" fill-rule="evenodd" stroke="none" />
      <path d="M38 328C38 368.317 70.6832 401 111 401C151.317 401 184 368.317 184 328" id="Base" fill="#89C5CC" fill-rule="evenodd" stroke="none" />
      <path d="M161.028 264.085C179.095 262.753 199.271 277.328 207.986 292.497C215.011 304.726 213.828 320.785 209.489 333.778C206.583 342.476 200.241 354.878 189.665 354.999C176.433 355.15 175.795 338.796 175.539 329.236C175.199 316.525 173.593 305.453 163.577 296.789C161.243 294.771 158.692 292.995 156.334 291.005C152.642 287.89 148.562 284.7 148.086 279.546C147.429 272.436 151.443 271.156 157.571 272.477C157.769 272.52 158.306 272.723 159.036 273C162.166 274.186 168.844 276.718 167.581 273.692C167.105 272.552 165.368 271.648 163.175 270.971C157.5 270.354 150.733 269.638 148.787 270.066C127.792 274.672 119.617 303.755 117.446 322.233C117.212 324.227 117.022 326.228 116.857 328.232L113 328.232C113.268 323.393 113.621 318.562 114.43 313.776C117.525 295.473 127.2 268.591 148.42 265.62C149.203 265.51 152.083 265.491 155.571 265.696C157.224 264.772 159.076 264.213 161.028 264.085Z" id="Leaf-Me-Alone!" fill="#69A1AC" fill-rule="evenodd" stroke="none" />
    </g>
    <g id="Plant-Left" transform="translate(22 -118.5697)" opacity="0.5">
      <path d="M178.223 111.445C182.425 105.453 190.224 90.2348 196.138 88.0937C199.948 86.7146 198.837 100.98 198.884 103.7C199.067 114.224 198.043 124.681 196.778 135.116C194.498 153.937 187.045 170.697 176.822 186.715C171.562 194.957 165.391 203.3 156.845 208.442C152.912 210.811 148.179 211.207 144.294 213.248C139.769 215.623 142.233 213.703 140.194 218.417C137.363 224.963 136.457 233.408 135.147 240.392C129.132 272.455 114.568 441.945 117.093 474.558C117.317 477.449 113.287 478.14 113.085 474.611C112.016 455.9 121.27 326.322 125.94 283.947C130.609 241.571 135.334 204.135 140.071 189.474C145.819 171.687 156.199 150.298 164.84 133.711C168.854 126.006 173.229 118.565 178.223 111.445Z" id="Leaf" fill="#69A1AC" fill-rule="evenodd" stroke="none" />
      <path d="M209.414 319.278C220.349 311.25 232.186 326.401 222.29 334.43C216.82 338.868 211.101 337.29 207.882 333.591C205.792 336.139 203.836 338.803 201.956 341.052C196.229 347.909 190.817 354.928 185.644 362.111C174.898 377.035 165.689 392.801 156.06 408.278C146.558 423.554 137.132 438.908 128.519 454.571C121.223 467.841 111.498 483.452 109 498C112.79 467.146 127.172 437.49 144.298 410.291C161.285 383.314 180.779 353.853 207.081 332.564C204.404 328.627 204.33 323.008 209.414 319.278Z" id="Leaf" fill="#C1DEE2" fill-rule="evenodd" stroke="none" />
      <path d="M1.9132 244.031C8.03244 245.227 18.0312 259.07 23.0753 264.344C29.0699 270.612 34.5084 277.292 39.6349 284.292C50.6711 299.358 60.5411 315.376 68.9339 332.08C82.6164 359.311 93.5779 387.265 101.533 416.918C106.403 435.069 109.556 453.883 111.424 472.565C111.777 476.089 115.471 503.253 110.148 503.985C105.361 504.644 106.84 483.359 106.609 480.463C103.998 447.798 96.1772 416.015 85.2985 385.226C82.929 378.519 80.7276 370.304 76.9381 364.268C74.2092 359.921 76.9186 361.437 72.1228 359.792C68.0049 358.378 63.3131 358.724 59.0963 356.993C49.9356 353.237 42.6006 345.944 36.1709 338.608C23.6758 324.351 13.774 308.928 8.61264 290.66C5.74947 280.532 3.11836 270.344 1.65826 259.902C1.28056 257.203 -2.02816 243.26 1.9132 244.031Z" id="Leaf" fill="#69A1AC" fill-rule="evenodd" stroke="none" />
      <path d="M26.0614 13.716C49.1113 53.6904 68.0528 97.6012 80.2834 142.076C87.6937 169.023 92.876 196.675 98.025 224.126C105.997 266.632 113.538 309.134 115.683 352.395C117.841 395.906 122.109 446.092 107.861 488C114.978 445.452 108.202 400.162 107.002 357.35C106.429 336.912 104.768 316.674 102.588 296.355C100.473 276.645 97.0184 257.029 93.8009 237.474C92.2336 227.95 90.5876 218.441 88.9118 208.937C88.4115 206.101 88.2002 197.687 86.4014 195.75C84.5911 193.8 75.3543 193.005 72.4544 191.574C66.6149 188.693 61.1221 184.6 56.2609 180.275C46.9418 171.984 38.8347 161.151 32.4359 150.472C17.6307 125.764 11.7116 95.61 12.0108 66.9942C12.0682 61.4382 21.0034 1.60995 17.4149 0.786066C17.631 0.533029 17.8353 0.271761 18.028 0C20.7448 4.54878 23.4108 9.1284 26.0614 13.716Z" id="Leaf" fill="#89C5CC" fill-rule="evenodd" stroke="none" />
      <path d="M274.846 157.887C275.202 157.374 277.517 153.807 276.351 154.035C278.724 153.57 273.087 157.969 279 155.27C276.192 157.922 277.813 161.367 277.85 164.935C277.911 170.73 276.942 176.476 275.851 182.146C274.126 191.109 271.557 199.823 267.828 208.159C259.701 226.326 245.901 243.814 229.518 255.172C221.43 260.779 213.504 262.689 204.28 265.27C198.453 266.901 197.991 269.915 194.898 275.569C188.46 287.345 182.136 299.078 176.457 311.251C169.677 325.788 163.095 340.34 156.886 355.132C135.969 404.957 118.945 456.578 110.005 510C109.786 478.519 117.069 446.095 126.255 416.088C132.947 394.226 141.658 373.151 150.95 352.289C153.201 347.236 156.613 340.734 157.57 335.155C158.239 331.245 156.192 327.486 155.255 323.367C151.602 307.33 151.863 289.363 155.071 273.24C158.609 255.461 168.839 247.209 186.145 244.691C192.474 243.769 200.519 244.107 206.322 241.408C212.645 238.47 215.253 228.81 218.849 222.61C228.506 205.953 239.98 189.979 253.155 175.945C256.803 172.059 260.726 168.473 264.888 165.15C267.513 163.053 273.057 160.47 274.846 157.887Z" id="Leaf" fill="#89C5CC" fill-rule="evenodd" stroke="none" />
      <path d="M80.7903 476L142.21 476Q142.344 476 142.478 476.007Q142.612 476.014 142.745 476.029Q142.879 476.043 143.011 476.065Q143.143 476.086 143.275 476.115Q143.406 476.143 143.535 476.179Q143.664 476.214 143.792 476.257Q143.919 476.299 144.044 476.349Q144.168 476.398 144.29 476.454Q144.412 476.509 144.531 476.572Q144.65 476.634 144.765 476.703Q144.881 476.771 144.992 476.846Q145.104 476.921 145.211 477.001Q145.318 477.082 145.421 477.168Q145.524 477.254 145.622 477.346Q145.72 477.437 145.813 477.534Q145.906 477.631 145.994 477.732Q146.081 477.834 146.163 477.94Q146.245 478.046 146.322 478.156Q146.398 478.267 146.468 478.381Q146.539 478.495 146.603 478.613Q146.667 478.731 146.724 478.852Q146.782 478.973 146.833 479.098Q146.884 479.222 146.928 479.348Q146.973 479.475 147.01 479.604Q147.047 479.732 147.078 479.863Q147.108 479.994 147.132 480.126Q147.155 480.258 147.172 480.391Q147.188 480.524 147.197 480.658Q147.206 480.792 147.208 480.926Q147.21 481.06 147.205 481.194Q147.2 481.328 147.187 481.462Q147.175 481.596 147.155 481.728L142.408 513.919Q142.343 514.359 142.258 514.796Q142.174 515.233 142.07 515.666Q141.966 516.099 141.843 516.527Q141.72 516.955 141.578 517.377Q141.436 517.799 141.276 518.214Q141.115 518.629 140.936 519.037Q140.758 519.444 140.561 519.844Q140.364 520.243 140.15 520.633Q139.935 521.023 139.704 521.403Q139.472 521.784 139.224 522.153Q138.976 522.523 138.711 522.881Q138.447 523.239 138.167 523.585Q137.886 523.931 137.591 524.264Q137.296 524.597 136.986 524.917Q136.676 525.237 136.353 525.542Q136.029 525.848 135.692 526.139Q135.355 526.43 135.006 526.705Q134.656 526.981 134.294 527.241Q133.933 527.501 133.56 527.744Q133.188 527.988 132.804 528.214Q132.421 528.441 132.028 528.65Q131.636 528.86 131.234 529.051Q130.832 529.243 130.422 529.417Q130.012 529.59 129.595 529.745Q129.178 529.901 128.754 530.037Q128.33 530.173 127.901 530.291Q127.471 530.408 127.037 530.507Q126.603 530.605 126.165 530.684Q125.727 530.763 125.286 530.822Q124.844 530.881 124.401 530.921Q123.958 530.96 123.513 530.98Q123.068 531 122.623 531L100.377 531Q99.9319 531 99.4872 530.98Q99.0424 530.96 98.599 530.921Q98.1556 530.881 97.7144 530.822Q97.2732 530.763 96.8351 530.684Q96.397 530.605 95.9628 530.507Q95.5286 530.408 95.0992 530.291Q94.6698 530.173 94.2461 530.037Q93.8223 529.901 93.4051 529.745Q92.9879 529.59 92.5779 529.417Q92.168 529.243 91.7662 529.051Q91.3644 528.86 90.9716 528.65Q90.5787 528.441 90.1955 528.214Q89.8124 527.988 89.4397 527.744Q89.067 527.501 88.7055 527.241Q88.344 526.981 87.9944 526.705Q87.6449 526.43 87.3079 526.139Q86.9709 525.848 86.6472 525.542Q86.3235 525.237 86.0138 524.917Q85.704 524.597 85.4088 524.264Q85.1136 523.931 84.8335 523.585Q84.5533 523.239 84.2889 522.881Q84.0245 522.523 83.7762 522.153Q83.528 521.784 83.2964 521.403Q83.0649 521.023 82.8504 520.633Q82.636 520.243 82.4392 519.844Q82.2424 519.444 82.0635 519.037Q81.8846 518.629 81.7241 518.214Q81.5635 517.799 81.4216 517.377Q81.2797 516.955 81.1567 516.527Q81.0337 516.099 80.9298 515.666Q80.826 515.233 80.7415 514.796Q80.657 514.359 80.5921 513.919L75.8448 481.728Q75.8252 481.596 75.8128 481.462Q75.8004 481.328 75.7951 481.194Q75.7899 481.06 75.7918 480.926Q75.7938 480.792 75.8029 480.658Q75.8121 480.524 75.8284 480.391Q75.8447 480.258 75.8681 480.126Q75.8916 479.994 75.9221 479.863Q75.9525 479.732 75.99 479.604Q76.0274 479.475 76.0717 479.348Q76.1161 479.222 76.1671 479.097Q76.2181 478.973 76.2757 478.852Q76.3333 478.731 76.3974 478.613Q76.4614 478.495 76.5317 478.381Q76.6019 478.267 76.6782 478.156Q76.7545 478.046 76.8366 477.94Q76.9187 477.834 77.0064 477.732Q77.0941 477.631 77.1871 477.534Q77.28 477.437 77.3781 477.346Q77.4762 477.254 77.579 477.168Q77.6818 477.082 77.7891 477.001Q77.8964 476.921 78.0078 476.846Q78.1193 476.771 78.2346 476.703Q78.3499 476.634 78.4687 476.572Q78.5875 476.509 78.7095 476.454Q78.8315 476.398 78.9563 476.349Q79.0811 476.299 79.2084 476.257Q79.3357 476.214 79.465 476.179Q79.5944 476.143 79.7255 476.115Q79.8566 476.086 79.989 476.065Q80.1214 476.043 80.2548 476.029Q80.3882 476.014 80.5222 476.007Q80.6561 476 80.7903 476Z" id="Base" fill="#C1DEE2" fill-rule="evenodd" stroke="none" />
    </g>
    <g id="Maceta" transform="translate(32 325.43024)">
      <path d="M15.4177 48.4557C15.4177 69.7431 17.0976 87 39.6456 87C62.1935 87 63.8734 69.7431 63.8734 48.4557" id="Base" fill="#F2F2F2" fill-rule="evenodd" stroke="none" />
      <path d="M46.3534 35.1742C45.5269 36.6032 44.79 38.0608 44.139 39.5403C44.116 36.4933 44.2845 33.424 44.7446 30.3128C45.531 24.9833 46.7322 19.6816 47.8609 14.3884C48.6721 10.5844 48.6208 3.75184 51.6994 0.720495C52.5436 0.0653705 52.7468 1.35061 52.7468 1.90838C52.7575 2.02628 52.7445 -0.368253 51.9251 0.0488472C47.0544 2.5644 45.4763 10.4741 43.9169 14.4344C41.6418 20.2148 39.7061 26.1239 38.909 32.1379C38.7076 33.6572 38.598 35.176 38.5727 36.6921C38.4071 36.2866 38.2516 35.878 38.0796 35.4738C35.2684 28.8806 31.4747 22.4472 26.7431 16.514C25.5784 15.0542 10.9342 0.64949 9.78779 2.85423C9.9009 3.17442 10.1377 3.44013 10.4988 3.65136C10.52 3.67548 10.5206 3.66208 10.5083 3.62636C11.3683 5.01565 13.8137 7.16144 14.5754 8.3788C16.4923 11.4423 17.9821 14.6934 19.4961 17.8824C22.6948 24.6216 25.6621 31.4287 28.5386 38.2502C29.2084 39.8391 29.9065 41.4191 30.6187 42.9941C23.2769 32.4045 13.4826 22.7907 0 17.2871C4.60494 19.6298 7.62405 24.0375 10.7339 27.4123C14.4846 31.4828 18.4351 35.4439 22.1929 39.51C26.6253 44.3066 31.8405 49.3578 36.1038 54.6658C40.2333 63.3356 44.2462 72.0148 46.7234 81.1285C45.7084 77.9797 46.6438 73.6283 46.4701 70.3236C46.3322 67.6933 46.0247 65.0844 45.6035 62.4804C46.1243 63.6549 46.5731 64.8303 46.7764 65.9235C46.5908 64.0899 46.377 62.2678 46.1472 60.4552C46.7369 58.7582 47.316 57.1747 47.7072 55.8702C49.7118 49.1787 52.0988 42.6025 55.3495 36.1928C58.3574 30.2636 61.8077 24.4099 65.5673 18.7349C67.321 16.0889 69.0989 13.4528 70.8656 10.8122C72.022 9.0835 73.123 6.31563 74.733 4.65928C64.3261 14.174 52.956 23.7575 46.3534 35.1742" id="Fill-27" fill="#F2F2F2" fill-rule="evenodd" stroke="none" />
    </g>
    <g id="Top-Leaves" transform="translate(370.8296 0)">
      <path d="M214.633 123.827C211.65 113.876 204.646 106.087 197.375 98.951C183.22 85.0582 175.607 76.4683 170.562 56.1456C167.595 44.1934 164.575 31.5276 155.165 22.8561C148.313 16.5413 136.521 11.2358 127.358 15.7577C113.261 24.1717 109.475 41.4386 110.897 56.9001C112.659 76.0635 121.61 87.8796 138.807 94.938C148.497 98.9133 154.938 104.159 160.198 113.299C164.405 120.607 166.858 129.759 172.145 136.384C180.05 146.289 189.941 150.691 202.134 149.046C190.714 128.035 177.371 106.826 161.278 89.1352C159.771 87.3566 150.886 80.5492 152.678 77.5181C154.652 74.1806 163.774 86.7175 163.709 86.6417C168.386 92.0103 172.714 97.7151 176.964 103.475C176.953 103.48 176.94 103.483 176.928 103.489C181.304 109.4 185.644 115.397 189.902 121.469C191.624 124.038 193.3 126.639 194.905 129.306C197.259 133.219 200.996 144.325 204.849 146.731C205.673 147.245 206.436 147.533 207.148 147.651C209.777 151.956 212.335 156.295 214.768 160.685C221.121 172.151 226.574 184.257 229.076 197.202C229.807 200.981 229.29 215.114 231.869 217.842C236.585 222.831 235.203 213.223 234.921 210.323C232.579 186.31 223.958 165.852 211.441 145.664C215.286 140.641 215.842 127.859 214.633 123.827" id="Leaf" fill="#F2F2F2" fill-rule="evenodd" stroke="none" />
      <path d="M53.1306 135.43C58.1017 129.573 70.0519 128.579 77.3606 128.971C86.4044 129.456 95.6936 131.658 104.298 134.32C118.471 138.704 132.244 146.706 144.727 154.451C146.231 155.384 164.764 166.529 163.124 168.485C161.498 170.423 143.305 157.184 139.25 154.902C130.597 150.032 122.662 144.272 113.124 141.055C103.249 137.724 92.8047 136.405 82.42 136.496C81.0872 136.508 76.7399 135.579 76.646 137.551C76.5542 139.479 83.7475 138.473 85.0162 138.485C90.2551 138.533 95.5265 139.026 100.691 139.934C110.368 141.635 119.465 145.061 127.753 150.317C125.44 155.694 119.897 158.173 114.081 156.828C109.055 155.664 104.156 152.795 99.2343 151.966C95.8448 151.395 92.4509 151.735 89.164 152.69C80.4942 155.209 75.4939 160.371 65.9615 156.78C58.4887 153.966 45.9912 143.853 53.1306 135.43" id="Leaf" fill="#F2F2F2" fill-rule="evenodd" stroke="none" />
      <path d="M31.7525 41.0513C20.7145 40.2462 8.38763 49.0557 3.06326 58.2232C-1.22894 65.6147 -0.505859 75.3206 2.14527 83.1734C3.92057 88.4307 7.79518 95.9263 14.2566 95.9994C22.3406 96.0908 22.7305 86.2066 22.8868 80.4283C23.0946 72.7462 24.0758 66.054 30.1948 60.8177C31.6209 59.5978 33.1797 58.5246 34.6202 57.3217C36.8758 55.4388 39.3685 53.511 39.6591 50.3961C40.0603 46.0986 37.6082 45.3252 33.8642 46.1236C33.7434 46.1493 33.4153 46.2724 32.969 46.4397C31.0571 47.1566 26.977 48.6865 27.7488 46.8577C28.0394 46.1686 29.1009 45.6225 30.4406 45.2134C33.9074 44.8405 38.0417 44.4078 39.2307 44.6663C52.058 47.4502 57.0522 65.0278 58.3785 76.1957C58.5287 77.4603 58.6487 78.7292 58.7531 80L61.1048 80C60.9401 77.0154 60.7255 74.0357 60.2212 71.0845C58.3307 60.0223 52.4195 43.7749 39.4549 41.9794C38.9767 41.9125 37.2173 41.9012 35.0861 42.0249C34.0761 41.4665 32.9446 41.1289 31.7525 41.0513Z" id="Leaf-Me-Alone!" fill="#F2F2F2" fill-rule="evenodd" stroke="none" />
    </g>
  </g>
</svg>